<svg width="86" height="86" viewBox="0 0 86 86" fill="none" xmlns="http://www.w3.org/2000/svg">
<path d="M43 8C43 8 43 8 43 8C24.7746 8 10 22.7746 10 41C10 59.2254 24.7746 74 43 74C61.2254 74 76 59.2254 76 41C76 22.7746 61.2254 8 43 8Z" fill="white" fill-opacity="0.9"/>
<path d="M43 16C43 16 43 16 43 16C29.1929 16 18 27.1929 18 41C18 54.8071 29.1929 66 43 66C56.8071 66 68 54.8071 68 41C68 27.1929 56.8071 16 43 16Z" fill="none" stroke="white" stroke-width="2"/>
<path d="M43 24C43 24 43 24 43 24C33.6112 24 26 31.6112 26 41C26 50.3888 33.6112 58 43 58C52.3888 58 60 50.3888 60 41C60 31.6112 52.3888 24 43 24Z" fill="none" stroke="white" stroke-width="2"/>
<path d="M43 32C43 32 43 32 43 32C38.0294 32 34 36.0294 34 41C34 45.9706 38.0294 50 43 50C47.9706 50 52 45.9706 52 41C52 36.0294 47.9706 32 43 32Z" fill="none" stroke="white" stroke-width="2"/>
<path d="M43 36C43 36 43 36 43 36C40.2386 36 38 38.2386 38 41C38 43.7614 40.2386 46 43 46C45.7614 46 48 43.7614 48 41C48 38.2386 45.7614 36 43 36Z" fill="white"/>
</svg>