<svg width="34" height="34" viewBox="0 0 34 34" fill="none" xmlns="http://www.w3.org/2000/svg">
<path d="M23.1501 10.3499C22.76 11.52 21.9575 12.4183 20.8215 12.9219C17.1728 14.5394 14.5396 17.1725 12.9221 20.8212C12.4185 21.9573 11.5203 22.7598 10.3501 23.1499" stroke="white" stroke-width="1.5" stroke-linejoin="round"/>
<path d="M2.67 30.83L0.75 32.75M30.83 2.67L32.75 0.75" stroke="white" stroke-width="1.5" stroke-linecap="round" stroke-linejoin="round"/>
<path d="M7.45791 19.8474L7.98824 19.317L7.45791 19.8474ZM13.6526 26.0421L13.1223 26.5724L13.6526 26.0421ZM9.9358 29.7589L10.4661 29.2286H10.4661L9.9358 29.7589ZM12.4647 30.7582L12.7517 31.4511L12.4647 30.7582ZM11.1237 30.7582L10.8367 31.4511H10.8367L11.1237 30.7582ZM14.6519 27.23L15.3448 26.943L15.3448 26.943L14.6519 27.23ZM14.6519 28.571L15.3448 28.858H15.3448L14.6519 28.571ZM4.92898 18.8481L4.64197 18.1552L4.92898 18.8481ZM6.27001 18.8481L6.55702 18.1552H6.55702L6.27001 18.8481ZM2.74179 21.0353L2.04888 20.7483L2.74179 21.0353ZM2.74179 22.3763L2.04888 22.6633L2.74179 22.3763ZM8.69686 30.9979L9.22719 31.5282V31.5282L8.69686 30.9979ZM3.74108 30.9979L3.21075 31.5282L3.21075 31.5282L3.74108 30.9979ZM2.50213 29.7589L3.03246 29.2286H3.03246L2.50213 29.7589ZM6.21897 32.75L6.21897 32H6.21897L6.21897 32.75ZM19.8474 7.45791L19.317 7.98824L19.8474 7.45791ZM26.0421 13.6526L26.5724 13.1223L26.0421 13.6526ZM29.7589 9.9358L29.2286 10.4661V10.4661L29.7589 9.9358ZM30.7582 12.4647L31.4511 12.7517L30.7582 12.4647ZM30.7582 11.1237L31.4511 10.8367V10.8367L30.7582 11.1237ZM27.23 14.6519L26.943 15.3448L26.943 15.3448L27.23 14.6519ZM28.571 14.6519L28.858 15.3448V15.3448L28.571 14.6519ZM18.8481 4.92898L18.1552 4.64197L18.8481 4.92898ZM18.8481 6.27001L18.1552 6.55702V6.55702L18.8481 6.27001ZM21.0353 2.74179L20.7483 2.04888L21.0353 2.74179ZM22.3763 2.74179L22.6633 2.04888L22.3763 2.74179ZM30.9979 8.69686L31.5282 9.22719H31.5282L30.9979 8.69686ZM30.9979 3.74108L31.5282 3.21075L31.5282 3.21075L30.9979 3.74108ZM29.7589 2.50213L29.2286 3.03246V3.03246L29.7589 2.50213ZM32.75 6.21897L32 6.21897V6.21897L32.75 6.21897ZM7.45791 19.8474L6.92758 20.3777L13.1223 26.5724L13.6526 26.0421L14.183 25.5118L7.98824 19.317L7.45791 19.8474ZM9.9358 29.7589L10.4661 29.2286L4.27141 23.0339L3.74108 23.5642L3.21075 24.0945L9.40547 30.2893L9.9358 29.7589ZM13.6526 29.7589L13.1223 29.2286C12.8264 29.5245 12.6308 29.7196 12.47 29.8598C12.3142 29.9957 12.2321 30.0428 12.1777 30.0653L12.4647 30.7582L12.7517 31.4511C13.0194 31.3403 13.2425 31.1764 13.456 30.9902C13.6643 30.8085 13.9016 30.5706 14.183 30.2893L13.6526 29.7589ZM9.9358 29.7589L9.40547 30.2893C9.68685 30.5706 9.92416 30.8085 10.1325 30.9902C10.3459 31.1764 10.5691 31.3403 10.8367 31.4511L11.1237 30.7582L11.4107 30.0653C11.3563 30.0428 11.2742 29.9957 11.1185 29.8598C10.9577 29.7196 10.762 29.5245 10.4661 29.2286L9.9358 29.7589ZM12.4647 30.7582L12.1777 30.0653C11.9322 30.167 11.6563 30.167 11.4107 30.0653L11.1237 30.7582L10.8367 31.4511C11.4498 31.7051 12.1387 31.7051 12.7517 31.4511L12.4647 30.7582ZM13.6526 26.0421L13.1223 26.5724C13.4182 26.8683 13.6133 27.064 13.7535 27.2248C13.8894 27.3805 13.9365 27.4626 13.959 27.517L14.6519 27.23L15.3448 26.943C15.234 26.6754 15.0701 26.4522 14.8839 26.2388C14.7022 26.0304 14.4643 25.7931 14.183 25.5118L13.6526 26.0421ZM13.6526 29.7589L14.183 30.2893C14.4643 30.0079 14.7022 29.7706 14.8839 29.5622C15.0701 29.3488 15.234 29.1256 15.3448 28.858L14.6519 28.571L13.959 28.284C13.9365 28.3384 13.8894 28.4205 13.7535 28.5762C13.6133 28.737 13.4182 28.9327 13.1223 29.2286L13.6526 29.7589ZM14.6519 27.23L13.959 27.517C14.0607 27.7626 14.0607 28.0385 13.959 28.284L14.6519 28.571L15.3448 28.858C15.5988 28.2449 15.5988 27.5561 15.3448 26.943L14.6519 27.23ZM3.74108 19.8474L4.27141 20.3777C4.5673 20.0818 4.76295 19.8867 4.92376 19.7465C5.07949 19.6106 5.16162 19.5635 5.216 19.541L4.92898 18.8481L4.64197 18.1552C4.37436 18.266 4.15117 18.4299 3.93776 18.6161C3.72944 18.7978 3.49213 19.0357 3.21075 19.317L3.74108 19.8474ZM7.45791 19.8474L7.98824 19.317C7.70686 19.0357 7.46955 18.7978 7.26123 18.6161C7.04782 18.4299 6.82464 18.266 6.55702 18.1552L6.27001 18.8481L5.983 19.541C6.03737 19.5635 6.1195 19.6106 6.27523 19.7465C6.43604 19.8867 6.63169 20.0818 6.92758 20.3777L7.45791 19.8474ZM4.92898 18.8481L5.216 19.541C5.46155 19.4393 5.73744 19.4393 5.983 19.541L6.27001 18.8481L6.55702 18.1552C5.94393 17.9012 5.25506 17.9012 4.64197 18.1552L4.92898 18.8481ZM3.74108 19.8474L3.21075 19.317C2.92937 19.5984 2.69148 19.8357 2.50977 20.044C2.32362 20.2575 2.15973 20.4806 2.04888 20.7483L2.74179 21.0353L3.4347 21.3223C3.45722 21.2679 3.50434 21.1858 3.64017 21.03C3.78044 20.8692 3.97551 20.6736 4.27141 20.3777L3.74108 19.8474ZM3.74108 23.5642L4.27141 23.0339C3.97551 22.738 3.78044 22.5423 3.64017 22.3815C3.50434 22.2258 3.45722 22.1437 3.4347 22.0893L2.74179 22.3763L2.04888 22.6633C2.15973 22.9309 2.32362 23.1541 2.50977 23.3675C2.69148 23.5758 2.92937 23.8131 3.21075 24.0945L3.74108 23.5642ZM2.74179 21.0353L2.04888 20.7483C1.79493 21.3613 1.79493 22.0502 2.04888 22.6633L2.74179 22.3763L3.4347 22.0893C3.33299 21.8437 3.33299 21.5678 3.4347 21.3223L2.74179 21.0353ZM2.50213 24.8031L3.03246 25.3335L4.27141 24.0945L3.74108 23.5642L3.21075 23.0339L1.9718 24.2728L2.50213 24.8031ZM9.9358 29.7589L9.40547 29.2286L8.16653 30.4675L8.69686 30.9979L9.22719 31.5282L10.4661 30.2893L9.9358 29.7589ZM3.74108 30.9979L4.27141 30.4675L3.03246 29.2286L2.50213 29.7589L1.9718 30.2893L3.21075 31.5282L3.74108 30.9979ZM8.69686 30.9979L8.16653 30.4675C7.56749 31.0666 7.17044 31.4614 6.8371 31.7157C6.52107 31.9568 6.35193 32 6.21897 32L6.21897 32.75L6.21897 33.5C6.81176 33.5 7.29752 33.2512 7.74697 32.9082C8.17912 32.5785 8.65814 32.0972 9.22719 31.5282L8.69686 30.9979ZM3.74108 30.9979L3.21075 31.5282C3.7798 32.0972 4.25881 32.5785 4.69096 32.9082C5.14042 33.2512 5.62617 33.5 6.21897 33.5L6.21897 32.75L6.21897 32C6.08601 32 5.91686 31.9568 5.60083 31.7157C5.2675 31.4614 4.87044 31.0666 4.27141 30.4675L3.74108 30.9979ZM2.50213 24.8031L1.9718 24.2728C1.40275 24.8419 0.921485 25.3209 0.591767 25.753C0.248844 26.2025 0 26.6882 0 27.281H0.75H1.5C1.5 27.1481 1.54318 26.9789 1.7843 26.6629C2.03863 26.3296 2.43343 25.9325 3.03246 25.3335L2.50213 24.8031ZM2.50213 29.7589L3.03246 29.2286C2.43343 28.6296 2.03863 28.2325 1.7843 27.8992C1.54318 27.5831 1.5 27.414 1.5 27.281H0.75H0C0 27.8738 0.248844 28.3596 0.591767 28.809C0.921485 29.2412 1.40275 29.7202 1.9718 30.2893L2.50213 29.7589ZM19.8474 7.45791L19.317 7.98824L25.5118 14.183L26.0421 13.6526L26.5724 13.1223L20.3777 6.92758L19.8474 7.45791ZM29.7589 9.9358L30.2893 9.40547L24.0945 3.21075L23.5642 3.74108L23.0339 4.27141L29.2286 10.4661L29.7589 9.9358ZM29.7589 13.6526L30.2893 14.183C30.5706 13.9016 30.8085 13.6643 30.9902 13.456C31.1764 13.2425 31.3403 13.0194 31.4511 12.7517L30.7582 12.4647L30.0653 12.1777C30.0428 12.2321 29.9957 12.3142 29.8598 12.47C29.7196 12.6308 29.5245 12.8264 29.2286 13.1223L29.7589 13.6526ZM29.7589 9.9358L29.2286 10.4661C29.5245 10.762 29.7196 10.9577 29.8598 11.1185C29.9957 11.2742 30.0428 11.3563 30.0653 11.4107L30.7582 11.1237L31.4511 10.8367C31.3403 10.5691 31.1764 10.3459 30.9902 10.1325C30.8085 9.92416 30.5706 9.68685 30.2893 9.40547L29.7589 9.9358ZM30.7582 12.4647L31.4511 12.7517C31.7051 12.1387 31.7051 11.4498 31.4511 10.8367L30.7582 11.1237L30.0653 11.4107C30.167 11.6563 30.167 11.9322 30.0653 12.1777L30.7582 12.4647ZM26.0421 13.6526L25.5118 14.183C25.7931 14.4643 26.0304 14.7022 26.2388 14.8839C26.4522 15.0701 26.6754 15.234 26.943 15.3448L27.23 14.6519L27.517 13.959C27.4626 13.9365 27.3805 13.8894 27.2248 13.7535C27.064 13.6133 26.8683 13.4182 26.5724 13.1223L26.0421 13.6526ZM29.7589 13.6526L29.2286 13.1223C28.9327 13.4182 28.737 13.6133 28.5762 13.7535C28.4205 13.8894 28.3384 13.9365 28.284 13.959L28.571 14.6519L28.858 15.3448C29.1256 15.234 29.3488 15.0701 29.5622 14.8839C29.7706 14.7022 30.0079 14.4643 30.2893 14.183L29.7589 13.6526ZM27.23 14.6519L26.943 15.3448C27.5561 15.5988 28.2449 15.5988 28.858 15.3448L28.571 14.6519L28.284 13.959C28.0385 14.0607 27.7626 14.0607 27.517 13.959L27.23 14.6519ZM19.8474 3.74108L19.317 3.21075C19.0357 3.49213 18.7978 3.72944 18.6161 3.93776C18.4299 4.15117 18.266 4.37436 18.1552 4.64197L18.8481 4.92898L19.541 5.216C19.5635 5.16162 19.6106 5.07949 19.7465 4.92376C19.8867 4.76295 20.0818 4.5673 20.3777 4.27141L19.8474 3.74108ZM19.8474 7.45791L20.3777 6.92758C20.0818 6.63169 19.8867 6.43604 19.7465 6.27523C19.6106 6.1195 19.5635 6.03737 19.541 5.983L18.8481 6.27001L18.1552 6.55702C18.266 6.82464 18.4299 7.04782 18.6161 7.26123C18.7978 7.46955 19.0357 7.70686 19.317 7.98824L19.8474 7.45791ZM18.8481 4.92898L18.1552 4.64197C17.9012 5.25506 17.9012 5.94393 18.1552 6.55702L18.8481 6.27001L19.541 5.983C19.4393 5.73744 19.4393 5.46155 19.541 5.216L18.8481 4.92898ZM19.8474 3.74108L20.3777 4.27141C20.6736 3.97551 20.8692 3.78044 21.03 3.64017C21.1858 3.50434 21.2679 3.45722 21.3223 3.4347L21.0353 2.74179L20.7483 2.04888C20.4806 2.15973 20.2575 2.32362 20.044 2.50977C19.8357 2.69148 19.5984 2.92937 19.317 3.21075L19.8474 3.74108ZM23.5642 3.74108L24.0945 3.21075C23.8131 2.92937 23.5758 2.69148 23.3675 2.50977C23.1541 2.32362 22.9309 2.15973 22.6633 2.04888L22.3763 2.74179L22.0893 3.4347C22.1437 3.45722 22.2258 3.50434 22.3815 3.64017C22.5423 3.78044 22.738 3.97551 23.0339 4.27141L23.5642 3.74108ZM21.0353 2.74179L21.3223 3.4347C21.5678 3.33299 21.8437 3.33299 22.0893 3.4347L22.3763 2.74179L22.6633 2.04888C22.0502 1.79493 21.3613 1.79493 20.7483 2.04888L21.0353 2.74179ZM24.8031 2.50213L24.2728 1.9718L23.0339 3.21075L23.5642 3.74108L24.0945 4.27141L25.3335 3.03246L24.8031 2.50213ZM29.7589 9.9358L30.2893 10.4661L31.5282 9.22719L30.9979 8.69686L30.4675 8.16653L29.2286 9.40547L29.7589 9.9358ZM30.9979 3.74108L31.5282 3.21075L30.2893 1.9718L29.7589 2.50213L29.2286 3.03246L30.4675 4.27141L30.9979 3.74108ZM30.9979 8.69686L31.5282 9.22719C32.0972 8.65814 32.5785 8.17912 32.9082 7.74697C33.2512 7.29752 33.5 6.81176 33.5 6.21897L32.75 6.21897L32 6.21897C32 6.35193 31.9568 6.52107 31.7157 6.8371C31.4614 7.17044 31.0666 7.56749 30.4675 8.16653L30.9979 8.69686ZM30.9979 3.74108L30.4675 4.27141C31.0666 4.87044 31.4614 5.2675 31.7157 5.60083C31.9568 5.91686 32 6.08601 32 6.21897L32.75 6.21897L33.5 6.21897C33.5 5.62617 33.2512 5.14042 32.9082 4.69096C32.5785 4.25881 32.0972 3.7798 31.5282 3.21075L30.9979 3.74108ZM24.8031 2.50213L25.3335 3.03246C25.9325 2.43343 26.3296 2.03863 26.6629 1.7843C26.9789 1.54318 27.1481 1.5 27.281 1.5V0.75V0C26.6882 0 26.2025 0.248844 25.753 0.591767C25.3209 0.921485 24.8419 1.40275 24.2728 1.9718L24.8031 2.50213ZM29.7589 2.50213L30.2893 1.9718C29.7202 1.40275 29.2412 0.921485 28.809 0.591767C28.3596 0.248844 27.8738 0 27.281 0V0.75V1.5C27.414 1.5 27.5831 1.54318 27.8992 1.7843C28.2325 2.03863 28.6296 2.43343 29.2286 3.03246L29.7589 2.50213Z" fill="white"/>
</svg>
