<svg width="29" height="29" viewBox="0 0 29 29" fill="none" xmlns="http://www.w3.org/2000/svg">
<g clip-path="url(#clip0_265_774)">
<path d="M11.8368 18.5893L13.4882 16.9274C10.2944 14.1024 8.20002 12.1957 8.19431 10.3757C8.19046 9.15068 9.12086 8.21441 10.3458 8.21057C11.6408 8.2065 12.1449 8.96325 13.4798 10.5341L14.5648 10.5307C15.8667 8.99823 16.3425 8.19173 17.6841 8.18751C18.6991 8.18432 19.4944 8.81183 19.754 9.72102C20.1622 9.67307 20.5471 9.64852 20.9204 9.64735C21.3404 9.64603 21.7372 9.67979 22.1224 9.73691C21.8354 7.50947 19.9985 5.8469 17.6885 5.85415C17.5485 5.85459 17.4203 5.89 17.2803 5.9021C17.4191 5.51666 17.5112 5.11971 17.5098 4.68804C17.5037 2.75138 15.9355 1.19297 13.9988 1.19905C12.0622 1.20514 10.5038 2.77338 10.5099 4.71003C10.5112 5.1417 10.6058 5.53807 10.747 5.92263C10.607 5.9114 10.4785 5.8768 10.3385 5.87724C7.81853 5.88516 5.85307 7.86301 5.86098 10.383C5.86985 13.2063 8.25677 15.4038 11.8368 18.5893Z" fill="white"/>
<path d="M26.3046 18.9405C25.9306 18.7317 25.5336 18.6046 25.1367 18.5358C25.218 18.4189 25.311 18.3253 25.3807 18.2084C26.6338 16.0228 25.902 13.3301 23.7164 12.0769C21.2736 10.6729 18.1617 11.6394 13.6281 13.1586L14.2419 15.42C18.286 14.0773 20.9899 13.2055 22.5678 14.1105C23.6314 14.7255 23.9737 15.9845 23.3704 17.0597C22.7206 18.1817 21.8224 18.2312 19.7936 18.6109L19.2482 19.5577C19.9308 21.4455 20.3884 22.2724 19.7154 23.4295C19.1004 24.4931 17.8414 24.8354 16.7662 24.2321C16.6961 24.1974 16.6376 24.1275 16.5674 24.0811C16.2199 24.8639 15.8253 25.5301 15.3721 26.1032C15.4539 26.1496 15.5241 26.2077 15.6059 26.2658C17.7915 27.5189 20.4843 26.7871 21.7374 24.6015C21.807 24.4846 21.8416 24.3562 21.8996 24.2277C22.1572 24.5419 22.4614 24.8209 22.8354 25.0297C24.5068 25.9928 26.6516 25.4144 27.6147 23.7314C28.5777 22.0484 27.976 19.8919 26.3046 18.9405Z" fill="white"/>
<path d="M14.4199 16.3761C13.5696 20.5555 12.96 23.3224 11.3879 24.2374C10.3282 24.859 9.05543 24.5247 8.43373 23.4533C7.77688 22.3354 8.19431 21.5174 8.87656 19.5786L8.33692 18.6353C6.35246 18.2798 5.41906 18.2594 4.75043 17.1065C4.12877 16.0468 4.46311 14.7741 5.53449 14.1524C5.63931 14.0937 5.75586 14.0583 5.87242 14.023C5.46204 13.3709 5.12147 12.6603 4.90898 11.8677C4.72257 11.9499 4.53616 12.0322 4.34982 12.1378C2.17213 13.4046 1.45726 16.1019 2.72411 18.2796C2.79448 18.396 2.8881 18.489 2.97013 18.6055C2.57369 18.6767 2.17743 18.8063 1.80476 19.0175C0.139474 19.991 -0.43715 22.1278 0.536457 23.8048C1.51006 25.4817 3.64685 26.0467 5.3238 25.0731C5.69647 24.8619 5.99892 24.581 6.2546 24.2652C6.31333 24.3933 6.34874 24.5215 6.4191 24.638C7.68595 26.8157 10.3832 27.5305 12.5609 26.2637C14.9948 24.8444 15.7082 21.6688 16.6735 16.9874L14.4199 16.3761Z" fill="white"/>
</g>
<defs>
<clipPath id="clip0_265_774">
<rect width="28" height="28" fill="white" transform="translate(0 0.0880127) rotate(-0.18)"/>
</clipPath>
</defs>
</svg>
