<svg width="86" height="86" viewBox="0 0 86 86" fill="none" xmlns="http://www.w3.org/2000/svg">
<g opacity="0.5">
<path d="M7.0426 45.1125C6.36094 45.7976 6.36377 46.9057 7.04894 47.5873C7.73411 48.269 8.84214 48.2662 9.52381 47.581L8.2832 46.3467L7.0426 45.1125ZM42.0736 7.4689L42.5438 5.78326H42.5438L42.0736 7.4689ZM50.626 9.85462L51.0963 8.16897L50.626 9.85462ZM54.3174 12.3054L52.958 13.4074V13.4074L54.3174 12.3054ZM74.9264 44.15L73.3337 44.8749V44.8749L74.9264 44.15ZM32.0872 12.7127L30.8001 11.527V11.527L32.0872 12.7127ZM40.1059 24.1458L39.8209 22.4192V22.4192L40.1059 24.1458ZM50.3331 28.8705L51.7212 27.8048L51.7212 27.8048L50.3331 28.8705ZM53.8368 41.688L52.0975 41.8806V41.8806L53.8368 41.688ZM56.5279 48.6213L55.5454 50.0695C56.2808 50.5684 57.2735 50.4369 57.8536 49.7636C58.4337 49.0904 58.4171 48.0892 57.8149 47.4356L56.5279 48.6213ZM29.1765 51.565C28.5776 52.3235 28.7069 53.424 29.4654 54.023C30.2239 54.6219 31.3244 54.4926 31.9234 53.7341L30.55 52.6496L29.1765 51.565ZM28.3755 19.2295L26.6516 19.5301L28.3755 19.2295ZM79.155 63.0805L80.7804 63.729L79.155 63.0805ZM63.9551 72.547L64.5024 74.2092L63.9551 72.547ZM45.7685 23.7364L46.4348 22.1182L46.4347 22.1182L45.7685 23.7364ZM37.6826 73.0973L38.939 74.3155L38.939 74.3155L37.6826 73.0973ZM9.57029 71.6051C8.91544 70.8943 7.80833 70.8489 7.09749 71.5038C6.38665 72.1586 6.34127 73.2657 6.99612 73.9765L8.2832 72.7908L9.57029 71.6051ZM38.31 72.2203L38.9472 70.5904C38.1485 70.2781 37.2411 70.5907 36.8041 71.3287L38.31 72.2203ZM38.187 72.428L36.6811 71.5365L36.6811 71.5365L38.187 72.428ZM39.7465 45.9685L40.2814 47.6347L39.7465 45.9685ZM42.0736 7.4689L41.6034 9.15455L50.1558 11.5403L50.626 9.85462L51.0963 8.16897L42.5438 5.78326L42.0736 7.4689ZM54.3174 12.3054L52.958 13.4074C62.2529 24.8737 68.2425 33.689 73.3337 44.8749L74.9264 44.15L76.5192 43.4251C71.2606 31.8711 65.076 22.7984 55.6769 11.2034L54.3174 12.3054ZM53.8368 41.688L52.0975 41.8806C52.3958 44.575 53.2584 47.6553 55.2408 49.8071L56.5279 48.6213L57.8149 47.4356C56.5672 46.0812 55.8397 43.8753 55.5762 41.4954L53.8368 41.688ZM50.3331 28.8705L48.945 29.9361C49.6446 30.8475 50.144 31.4983 50.4972 31.9889C50.6723 32.2322 50.796 32.4149 50.8824 32.5543C50.9721 32.6992 50.9968 32.7581 50.9966 32.7577L52.623 32.1115L54.2493 31.4653C54.0535 30.9727 53.7051 30.4544 53.3378 29.9441C52.9454 29.3991 52.4062 28.6971 51.7212 27.8048L50.3331 28.8705ZM53.8368 41.688L55.5762 41.4954C55.2431 38.487 54.9914 36.2138 54.7963 34.6269C54.699 33.8347 54.6135 33.1951 54.537 32.7123C54.4726 32.306 54.3877 31.8136 54.2493 31.4653L52.623 32.1115L50.9966 32.7577C50.9646 32.6772 51.0012 32.7623 51.0801 33.2601C51.1469 33.6813 51.2264 34.2723 51.3225 35.0539C51.5143 36.6146 51.7632 38.8619 52.0975 41.8806L53.8368 41.688ZM32.0872 12.7127L30.8001 11.527C29.4856 12.9538 28.3356 14.1923 27.5978 15.3553C26.7967 16.6179 26.3756 17.9475 26.6516 19.5301L28.3755 19.2295L30.0995 18.9289C30.0107 18.4195 30.0866 17.9656 30.5531 17.2303C31.0829 16.3954 31.9711 15.4215 33.3742 13.8985L32.0872 12.7127ZM74.9264 44.15L73.3337 44.8749C75.4504 49.5256 76.9448 52.8224 77.6888 55.5915C78.4066 58.2632 78.3817 60.2965 77.5296 62.432L79.155 63.0805L80.7804 63.729C81.9779 60.7278 81.9314 57.8938 81.0689 54.6834C80.2326 51.5704 78.5879 47.9703 76.5192 43.4251L74.9264 44.15ZM63.9551 72.547L64.5024 74.2092C68.8228 72.7867 72.2981 71.6501 74.9257 70.1864C77.6667 68.6594 79.5835 66.7287 80.7804 63.729L79.155 63.0805L77.5296 62.432C76.6769 64.569 75.3772 65.9283 73.2224 67.1288C70.9541 68.3924 67.8542 69.4208 63.4078 70.8848L63.9551 72.547ZM40.1059 24.1458L40.391 25.8724C42.0019 25.6065 43.1162 25.4236 43.9448 25.3469C44.3514 25.3093 44.6356 25.3029 44.8374 25.3153C45.0373 25.3276 45.1046 25.3556 45.1022 25.3546L45.7685 23.7364L46.4347 22.1182C45.5576 21.7571 44.5629 21.7747 43.6221 21.8618C42.6391 21.9528 41.3776 22.1622 39.8209 22.4192L40.1059 24.1458ZM37.6826 73.0973L36.4262 71.8791C33.0632 75.3477 28.0386 77.1298 22.9295 77.0824C17.8207 77.0349 12.8457 75.1606 9.57029 71.6051L8.2832 72.7908L6.99612 73.9765C11.0476 78.3744 17.016 80.5276 22.897 80.5822C28.7776 80.6368 34.7892 78.5955 38.939 74.3155L37.6826 73.0973ZM63.9551 72.547L63.4078 70.8848C54.8803 73.6925 47.5708 73.9621 38.9472 70.5904L38.31 72.2203L37.6728 73.8501C47.1728 77.5644 55.3316 77.2287 64.5024 74.2092L63.9551 72.547ZM38.187 72.428L39.6929 73.3196L39.8159 73.1118L38.31 72.2203L36.8041 71.3287L36.6811 71.5365L38.187 72.428ZM37.6826 73.0973L38.939 74.3155C39.2444 74.0004 39.4919 73.6591 39.6929 73.3196L38.187 72.428L36.6811 71.5365C36.5966 71.6793 36.5105 71.7922 36.4261 71.8792L37.6826 73.0973ZM56.5279 48.6213L57.5103 47.1731C53.8726 44.7052 46.6276 41.9219 39.2117 44.3022L39.7465 45.9685L40.2814 47.6347C46.3319 45.6926 52.4532 47.9717 55.5454 50.0695L56.5279 48.6213ZM39.7465 45.9685L39.2117 44.3022C35.6939 45.4313 32.2292 47.6993 29.1765 51.565L30.55 52.6496L31.9234 53.7341C34.5702 50.3823 37.4635 48.5392 40.2814 47.6347L39.7465 45.9685ZM39.7465 45.9685L40.9473 44.6954C36.5062 40.5067 30.1255 38.5289 23.9035 38.5956C17.6818 38.6623 11.3563 40.7766 7.0426 45.1125L8.2832 46.3467L9.52381 47.581C13.0455 44.0412 18.4105 42.1547 23.941 42.0954C29.4713 42.0362 34.9045 43.8072 38.5458 47.2415L39.7465 45.9685ZM45.7685 23.7364L45.1022 25.3546C45.6259 25.5703 46.2121 26.1117 46.9133 27.0399C47.2486 27.4838 47.5696 27.959 47.908 28.461C48.2344 28.9453 48.5876 29.4707 48.945 29.9361L50.3331 28.8705L51.7212 27.8048C51.4424 27.4417 51.1523 27.0122 50.8102 26.5047C50.4802 26.015 50.1075 25.4617 49.706 24.9302C48.9336 23.9078 47.8735 22.7106 46.4348 22.1182L45.7685 23.7364ZM50.626 9.85462L50.1558 11.5403C51.3428 11.8714 51.586 11.9634 51.7702 12.0858C51.9631 12.214 52.1576 12.4201 52.958 13.4074L54.3174 12.3054L55.6769 11.2034C55.0073 10.3775 54.4472 9.66251 53.7075 9.17087C52.959 8.67338 52.0915 8.44659 51.0963 8.16897L50.626 9.85462ZM42.0736 7.4689L42.5438 5.78326C39.5824 4.95717 37.283 5.60286 35.3654 6.95968C33.6386 8.18146 32.1269 10.0869 30.8001 11.527L32.0872 12.7127L33.3742 13.8985C34.9911 12.1434 36.0618 10.7544 37.3869 9.81682C38.5212 9.01427 39.7432 8.63563 41.6034 9.15455L42.0736 7.4689ZM28.3755 19.2295L26.6516 19.5301C27.2161 22.7676 30.1383 24.4456 32.6986 25.2419C35.3502 26.0666 38.3645 26.207 40.391 25.8724L40.1059 24.1458L39.8209 22.4192C38.3459 22.6627 35.8825 22.5668 33.738 21.8998C31.5022 21.2044 30.3099 20.1352 30.0995 18.9289L28.3755 19.2295Z" fill="white"/>
</g>
</svg>
