<svg width="61" height="61" viewBox="0 0 61 61" fill="none" xmlns="http://www.w3.org/2000/svg">
<g clip-path="url(#clip0_231_2321)">
<path d="M60.0406 13.1528L0.0410479 13.3413L0.0354766 11.5679C0.0336819 10.9966 0.495466 10.5319 1.06675 10.5301L58.9974 10.3481C59.5687 10.3463 60.0334 10.8081 60.0352 11.3794L60.0406 13.1528Z" fill="#FF4B55"/>
<path d="M60.0406 13.1521L0.0410156 13.3406L0.0498366 16.1484L60.0494 15.9599L60.0406 13.1521Z" fill="#F5F5F5"/>
<path d="M60.0494 15.9611L0.0498047 16.1496L0.0586256 18.9573L60.0582 18.7689L60.0494 15.9611Z" fill="#FF4B55"/>
<path d="M60.0582 18.7677L0.0585938 18.9562L0.0674147 21.764L60.067 21.5755L60.0582 18.7677Z" fill="#F5F5F5"/>
<path d="M60.067 21.5767L0.0673828 21.7652L0.0762038 24.5729L60.0758 24.3845L60.067 21.5767Z" fill="#FF4B55"/>
<path d="M60.0758 24.3844L0.0761719 24.5729L0.0849928 27.3807L60.0846 27.1922L60.0758 24.3844Z" fill="#F5F5F5"/>
<path d="M60.0845 27.1923L0.0849609 27.3808L0.0937819 30.1886L60.0934 30.0001L60.0845 27.1923Z" fill="#FF4B55"/>
<path d="M60.0933 30.0001L0.09375 30.1886L0.102571 32.9964L60.1022 32.8079L60.0933 30.0001Z" fill="#F5F5F5"/>
<path d="M60.1111 35.6158L0.111561 35.8043L0.097168 31.223L1.13169 31.2198L1.1375 32.9931L60.1023 32.8078L60.1111 35.6158Z" fill="#FF4B55"/>
<path d="M60.1109 35.6156L0.111328 35.8041L0.120149 38.6119L60.1197 38.4234L60.1109 35.6156Z" fill="#F5F5F5"/>
<path d="M60.1202 38.4235L0.120605 38.612L0.129426 41.4197L60.129 41.2313L60.1202 38.4235Z" fill="#FF4B55"/>
<path d="M60.129 41.2324L0.129395 41.4209L0.138215 44.2287L60.1378 44.0402L60.129 41.2324Z" fill="#F5F5F5"/>
<path d="M60.1378 44.0391L0.138184 44.2276L0.147005 47.0353L60.1466 46.8469L60.1378 44.0391Z" fill="#FF4B55"/>
<path d="M59.1209 49.6583L1.19032 49.8403C0.619033 49.8421 0.154339 49.3803 0.152544 48.809L0.146973 47.0357L60.1466 46.8472L60.1521 48.6206C60.1539 49.192 59.6921 49.6565 59.1209 49.6583Z" fill="#F5F5F5"/>
<path d="M36.3095 32.8825L1.13732 32.993C0.566035 32.9948 0.101341 32.533 0.099546 31.9617L0.0354766 11.5679C0.0336819 10.9966 0.495466 10.5319 1.06675 10.5301L36.2389 10.4196C36.8102 10.4178 37.2749 10.8796 37.2767 11.4509L37.3408 31.8448C37.3425 32.4163 36.8808 32.8807 36.3095 32.8825Z" fill="#41479B"/>
<path d="M9.89298 21.7229C9.88069 17.8104 13.0465 14.6267 16.9554 14.6144C17.9389 14.6113 18.8747 14.8097 19.7275 15.1698C19.8382 15.2166 19.921 15.0625 19.8216 14.9951C18.4094 14.0402 16.6844 13.52 14.8362 13.6219C10.7729 13.846 7.46015 17.1298 7.21017 21.1916C6.91951 25.9161 10.6696 29.8174 15.3184 29.8028C16.9984 29.7975 18.5584 29.275 19.8525 28.3933C19.9522 28.3254 19.8689 28.1715 19.7581 28.2189C18.9103 28.5815 17.9796 28.7841 17.0001 28.7872C13.091 28.7994 9.90527 25.6356 9.89298 21.7229Z" fill="#FFE15A"/>
<path d="M26.0882 21.6721L29.0796 20.5038C29.2275 20.446 29.1764 20.225 29.0181 20.2382L25.8188 20.5045L28.0105 18.1469C28.1187 18.0306 27.9768 17.854 27.8399 17.9344L25.0656 19.5645L26.0152 16.494C26.0621 16.3424 25.8576 16.2448 25.7694 16.3765L23.9784 19.0476L23.5068 15.8677C23.4836 15.7106 23.2567 15.7112 23.2343 15.8684L22.9458 17.8824L22.8261 18.7347L22.78 19.0515L20.9723 16.3939C20.8831 16.2627 20.679 16.3618 20.7272 16.5131L21.6996 19.5749L18.9153 17.9623C18.778 17.8827 18.6372 18.0603 18.7461 18.1759L20.9525 20.5197L17.7507 20.2735C17.5924 20.2613 17.5425 20.4826 17.6908 20.5395L20.6922 21.6889L17.698 22.8574C17.5499 22.9152 17.6013 23.1361 17.7595 23.123L20.9598 22.8567L18.7681 25.2202C18.6601 25.3367 18.8023 25.513 18.939 25.4325L21.713 23.7966L20.7598 26.8645C20.7127 27.0161 20.9172 27.114 21.0057 26.9821L22.7966 24.3133L22.8447 24.6373L22.9697 25.4813L23.271 27.4988C23.2945 27.656 23.5214 27.6551 23.5436 27.4978L23.9952 24.3097L25.8029 26.9695C25.8921 27.1007 26.0959 27.002 26.048 26.8505L25.0791 23.786L27.8633 25.4044C28.0005 25.4841 28.1415 25.3069 28.0329 25.1911L25.8262 22.8414L29.0273 23.0876C29.1856 23.0998 29.2355 22.8785 29.0871 22.8216L26.0882 21.6721Z" fill="#FFE15A"/>
</g>
<defs>
<clipPath id="clip0_231_2321">
<rect width="60" height="60" fill="white" transform="translate(0 0.188495) rotate(-0.18)"/>
</clipPath>
</defs>
</svg>
