<svg width="61" height="61" viewBox="0 0 61 61" fill="none" xmlns="http://www.w3.org/2000/svg">
<g clip-path="url(#clip0_231_2265)">
<path d="M40.0312 10.4074L58.9967 10.3478C59.568 10.346 60.0326 10.8078 60.0344 11.3791L60.1514 48.6202C60.1532 49.1915 59.6914 49.6562 59.1202 49.658L40.1547 49.7176L40.0312 10.4074Z" fill="#FF4B55"/>
<path d="M40.032 10.4078L20.0317 10.4706L20.1552 49.781L40.1555 49.7181L40.032 10.4078Z" fill="#41479B"/>
<path d="M1.06578 10.5297L20.0312 10.4701L20.1547 49.7803L1.18927 49.8398C0.617987 49.8416 0.153291 49.3799 0.151497 48.8086L0.0344997 11.5674C0.0327049 10.9961 0.49449 10.5315 1.06578 10.5297Z" fill="#FF4B55"/>
<path d="M10.1228 26.7613C8.55942 26.7662 7.21643 25.8284 6.62182 24.4849C6.62153 24.5054 6.61585 24.5245 6.61591 24.545C6.62198 26.4779 8.19393 28.04 10.1268 28.0339C12.0597 28.0278 13.6217 26.4559 13.6156 24.523C13.6155 24.5025 13.6097 24.4834 13.6093 24.463C13.0232 25.8102 11.6861 26.7563 10.1228 26.7613Z" fill="#F9CF02"/>
<path d="M10.1209 26.1251C11.5266 26.1207 12.6626 24.9775 12.6582 23.5718C12.6538 22.1661 11.5106 21.0301 10.1049 21.0345C8.69914 21.0389 7.56315 22.1821 7.56757 23.5878C7.57198 24.9935 8.71513 26.1295 10.1209 26.1251Z" fill="#F9CF02"/>
<path d="M8.50709 18.8122C8.50985 19.6907 9.22435 20.4008 10.1029 20.398C10.9815 20.3952 11.6915 19.6807 11.6887 18.8022C11.6867 18.1659 11.2887 18.0875 11.288 17.8489C11.2872 17.6104 11.5248 17.2914 11.0464 16.8952C11.2862 17.2922 10.8889 17.373 10.8901 17.7706C10.8914 18.1682 11.0504 18.1679 11.0514 18.486C11.0519 18.6618 10.9099 18.8045 10.7343 18.8051C10.5586 18.8056 10.4159 18.6636 10.4153 18.488C10.4143 18.17 10.7313 17.8507 10.7298 17.3734C10.7283 16.8961 10.6483 16.7373 10.4086 16.3403C10.1687 15.9434 9.76998 15.6264 10.0873 15.3073C9.61046 15.4678 9.85116 16.1034 9.85241 16.5012C9.85366 16.899 9.53637 17.1385 9.53787 17.6158C9.53937 18.0932 9.77821 18.1719 9.77921 18.49C9.77976 18.6658 9.63771 18.8085 9.46216 18.8091C9.28662 18.8096 9.14367 18.6676 9.14312 18.492C9.14212 18.174 9.30114 18.1735 9.29989 17.7756C9.29864 17.3778 8.90066 17.2996 9.13812 16.9012C8.66207 17.3004 8.90178 17.6178 8.90253 17.8564C8.90257 18.095 8.50509 18.1757 8.50709 18.8122Z" fill="#F9CF02"/>
<path d="M3.13022 28.9549L3.17655 43.7015C3.177 43.8465 3.29503 43.9637 3.43999 43.9633L6.09626 43.9549C6.24134 43.9545 6.35851 43.8364 6.35806 43.6915L6.31173 28.9449C6.31127 28.7998 6.19325 28.6827 6.04829 28.6831L3.39201 28.6915C3.24705 28.6918 3.12976 28.8098 3.13022 28.9549Z" fill="#F9CF02"/>
<path d="M13.9476 28.921L13.9939 43.6675C13.9944 43.8126 14.1124 43.9298 14.2574 43.9293L16.9136 43.921C17.0587 43.9205 17.1759 43.8025 17.1754 43.6575L17.1291 28.911C17.1287 28.7659 17.0106 28.6487 16.8657 28.6492L14.2094 28.6575C14.0643 28.6579 13.9471 28.7759 13.9476 28.921Z" fill="#F9CF02"/>
<path d="M6.95639 31.4881L6.95874 32.2354C6.95919 32.3805 7.07722 32.4976 7.22218 32.4972L13.0601 32.4789C13.2052 32.4784 13.3223 32.3604 13.3219 32.2154L13.3195 31.4681C13.3191 31.323 13.201 31.2059 13.0561 31.2063L7.21818 31.2247C7.0731 31.2251 6.95594 31.3431 6.95639 31.4881Z" fill="#F9CF02"/>
<path d="M6.98422 40.3968L6.98657 41.1441C6.98703 41.2892 7.10505 41.4063 7.25001 41.4059L13.0879 41.3875C13.233 41.3871 13.3502 41.2691 13.3497 41.1241L13.3474 40.3768C13.3469 40.2317 13.2289 40.1146 13.0839 40.115L7.24601 40.1333C7.10094 40.1338 6.98377 40.2517 6.98422 40.3968Z" fill="#F9CF02"/>
<path d="M7.42155 28.6787L12.8365 28.6617C12.9698 28.6613 13.0188 28.8365 12.9049 28.9054L10.3375 30.457C10.2129 30.5323 10.057 30.5328 9.93215 30.4583L7.35481 28.9229C7.24034 28.8547 7.28842 28.6791 7.42155 28.6787Z" fill="#F9CF02"/>
<path d="M7.46357 42.0417L12.8785 42.0247C13.0118 42.0243 13.0608 42.1996 12.9469 42.2685L10.3793 43.8199C10.2547 43.8952 10.0987 43.8957 9.97393 43.8212L7.39672 42.2858C7.28236 42.2176 7.33044 42.0421 7.46357 42.0417Z" fill="#F9CF02"/>
<path d="M10.454 33.1484C10.3536 33.1391 10.2564 33.1186 10.1537 33.119C8.40394 33.1245 6.98494 34.5524 6.99044 36.3021C6.9937 37.3406 7.50387 38.2531 8.28076 38.8273C8.37015 38.8934 8.48774 38.7971 8.44406 38.6947C8.35043 38.4748 8.29741 38.2337 8.29661 37.9797C8.29336 36.9455 9.13365 36.1018 10.1688 36.1017C10.7129 36.1016 11.2336 35.8313 11.4729 35.3426C11.9679 34.3319 11.3569 33.3308 10.454 33.1484ZM10.1603 35.245C9.80995 35.2461 9.52476 34.9629 9.52366 34.6123C9.52256 34.2619 9.80584 33.9768 10.1563 33.9757C10.5067 33.9746 10.7918 34.2578 10.7929 34.6083C10.7939 34.9589 10.5107 35.2439 10.1603 35.245Z" fill="#F9CF02"/>
<path d="M12.046 33.7568C11.9566 33.6907 11.839 33.7871 11.8827 33.8894C11.9764 34.1093 12.0294 34.3504 12.0302 34.6043C12.0334 35.6386 11.193 36.4823 10.158 36.4824C9.61389 36.4825 9.09302 36.7528 8.85385 37.2416C8.35909 38.2523 8.97009 39.2535 9.87302 39.4357C9.97336 39.445 10.0706 39.4655 10.1733 39.4652C11.9229 39.4597 13.3421 38.0317 13.3366 36.282C13.3331 35.2436 12.8229 34.3311 12.046 33.7568ZM10.1707 38.6084C9.82026 38.6095 9.53507 38.3263 9.53397 37.9757C9.53287 37.6253 9.81616 37.3402 10.1667 37.3391C10.5171 37.338 10.8021 37.6212 10.8032 37.9717C10.8042 38.3222 10.521 38.6073 10.1707 38.6084Z" fill="#F9CF02"/>
</g>
<defs>
<clipPath id="clip0_231_2265">
<rect width="60" height="60" fill="white" transform="translate(0 0.188495) rotate(-0.18)"/>
</clipPath>
</defs>
</svg>
