<svg width="61" height="62" viewBox="0 0 61 62" fill="none" xmlns="http://www.w3.org/2000/svg">
<g clip-path="url(#clip0_231_2344)">
<path d="M59.1243 50.4859L1.19377 50.6679C0.622486 50.6697 0.157767 50.2002 0.155942 49.6194L0.0369956 11.7576C0.035171 11.1768 0.49693 10.7044 1.06822 10.7026L58.9989 10.5206C59.5702 10.5188 60.0349 10.9883 60.0367 11.5691L60.1556 49.4309C60.1574 50.0118 59.6956 50.4841 59.1243 50.4859Z" fill="#FF4B55"/>
<path d="M10.0141 16.9244L11.0098 19.9276L14.127 19.9424C14.5306 19.9442 14.6996 20.4674 14.3756 20.7121L11.874 22.6025L12.8237 25.6212C12.9465 26.0121 12.5095 26.3369 12.1804 26.0994L9.63869 24.2644L7.10855 26.1152C6.78095 26.3549 6.34189 26.0326 6.4623 25.641L7.39299 22.6165L4.87952 20.7419C4.55403 20.4992 4.71973 19.975 5.12331 19.9707L8.2404 19.9363L9.21719 16.9269C9.3437 16.5371 9.88523 16.5354 10.0141 16.9244Z" fill="#FFE15A"/>
<path d="M21.3355 17.6295L22.0458 18.6078L23.186 18.2414C23.3336 18.194 23.4557 18.3649 23.3656 18.4928L22.67 19.4816L23.3652 20.4708C23.4553 20.5988 23.3331 20.7697 23.1856 20.7221L22.0455 20.355L21.335 21.3329C21.243 21.4595 21.0454 21.3941 21.0443 21.2369L21.0352 20.0211L19.9008 19.6361C19.754 19.5862 19.7539 19.375 19.9008 19.3253L21.0352 18.9409L21.0447 17.7252C21.0459 17.568 21.2436 17.503 21.3355 17.6295Z" fill="#FFE15A"/>
<path d="M17.0207 14.7206L18.21 14.8482L18.7137 13.7456C18.779 13.6029 18.9853 13.6267 19.0174 13.7806L19.2656 14.9698L20.4527 15.1162C20.6064 15.1351 20.648 15.3421 20.5138 15.4208L19.478 16.0281L19.7081 17.2211C19.7378 17.3757 19.5571 17.4797 19.4421 17.3744L18.5537 16.5604L17.5088 17.1513C17.3736 17.2279 17.2202 17.0852 17.2833 16.9414L17.77 15.8309L16.8941 15.003C16.7808 14.8964 16.8668 14.7042 17.0207 14.7206Z" fill="#FFE15A"/>
<path d="M18.9375 26.4969L18.2334 27.4796L17.091 27.1203C16.943 27.0738 16.8221 27.2455 16.9129 27.3728L17.6147 28.3572L16.9257 29.3508C16.8365 29.4794 16.9597 29.6495 17.107 29.601L18.2447 29.2268L18.9613 30.2002C19.0541 30.3262 19.2513 30.2596 19.2514 30.1023L19.2529 28.8864L20.3849 28.4944C20.5314 28.4435 20.5301 28.2324 20.3828 28.1835L19.2461 27.8063L19.2289 26.5907C19.2265 26.4337 19.0286 26.3696 18.9375 26.4969Z" fill="#FFE15A"/>
<path d="M23.2343 23.737L22.0458 23.8721L21.5352 22.7727C21.469 22.6304 21.2628 22.6555 21.2317 22.8096L20.9908 24.0004L19.8047 24.1542C19.6511 24.1741 19.6108 24.3813 19.7455 24.4592L20.7851 25.0599L20.5626 26.2544C20.5337 26.4092 20.7151 26.512 20.8295 26.406L21.7128 25.5865L22.7613 26.1708C22.897 26.2465 23.0495 26.1028 22.9855 25.9594L22.4919 24.852L23.3625 24.0186C23.4755 23.9113 23.3883 23.7196 23.2343 23.737Z" fill="#FFE15A"/>
</g>
<defs>
<clipPath id="clip0_231_2344">
<rect width="60" height="61" fill="white" transform="translate(0 0.188495) rotate(-0.18)"/>
</clipPath>
</defs>
</svg>
