<svg width="61" height="62" viewBox="0 0 61 62" fill="none" xmlns="http://www.w3.org/2000/svg">
<g clip-path="url(#clip0_231_2544)">
<path d="M59.1238 50.4859L1.19328 50.6679C0.621997 50.6697 0.157279 50.2002 0.155454 49.6194L0.0365074 11.7576C0.0346827 11.1768 0.496442 10.7044 1.06773 10.7026L58.9984 10.5206C59.5697 10.5188 60.0344 10.9883 60.0362 11.5691L60.1552 49.4309C60.1569 50.0118 59.6951 50.4841 59.1238 50.4859Z" fill="#FF4B55"/>
<path d="M10.0141 16.9244L11.0098 19.9276L14.127 19.9424C14.5306 19.9442 14.6996 20.4674 14.3756 20.7121L11.874 22.6025L12.8237 25.6212C12.9465 26.0121 12.5095 26.3369 12.1804 26.0994L9.63869 24.2644L7.10855 26.1152C6.78095 26.3549 6.34189 26.0326 6.4623 25.641L7.39299 22.6165L4.87952 20.7419C4.55403 20.4992 4.71973 19.975 5.12331 19.9707L8.2404 19.9363L9.21719 16.9269C9.3437 16.5371 9.88523 16.5354 10.0141 16.9244Z" fill="#FFE15A"/>
<path d="M21.336 17.6297L22.0463 18.608L23.1865 18.2415C23.3341 18.1941 23.4561 18.365 23.3661 18.4929L22.6705 19.4817L23.3657 20.4709C23.4558 20.5989 23.3336 20.7698 23.186 20.7222L22.0459 20.3552L21.3355 21.333C21.2435 21.4596 21.0458 21.3942 21.0448 21.237L21.0357 20.0212L19.9013 19.6362C19.7545 19.5863 19.7544 19.3752 19.9013 19.3254L21.0357 18.941L21.0452 17.7253C21.0464 17.5681 21.2441 17.5031 21.336 17.6297Z" fill="#FFE15A"/>
<path d="M17.0212 14.7207L18.2105 14.8483L18.7142 13.7457C18.7795 13.603 18.9858 13.6268 19.0179 13.7807L19.2661 14.9699L20.4532 15.1163C20.6069 15.1353 20.6485 15.3422 20.5143 15.4209L19.4785 16.0282L19.7085 17.2213C19.7383 17.3758 19.5576 17.4798 19.4425 17.3745L18.5542 16.5606L17.5093 17.1515C17.3741 17.228 17.2207 17.0853 17.2838 16.9415L17.7705 15.831L16.8946 15.0031C16.7813 14.8965 16.8673 14.7043 17.0212 14.7207Z" fill="#FFE15A"/>
<path d="M18.9375 26.4969L18.2334 27.4796L17.091 27.1203C16.943 27.0738 16.8221 27.2455 16.9129 27.3728L17.6147 28.3572L16.9257 29.3508C16.8365 29.4794 16.9597 29.6495 17.107 29.601L18.2447 29.2268L18.9613 30.2002C19.0541 30.3262 19.2513 30.2596 19.2514 30.1023L19.2529 28.8864L20.3849 28.4944C20.5314 28.4435 20.5301 28.2324 20.3828 28.1835L19.2461 27.8063L19.2289 26.5907C19.2265 26.4337 19.0286 26.3696 18.9375 26.4969Z" fill="#FFE15A"/>
<path d="M23.2338 23.737L22.0453 23.8721L21.5347 22.7727C21.4685 22.6304 21.2623 22.6555 21.2312 22.8096L20.9903 24.0004L19.8042 24.1542C19.6506 24.1741 19.6104 24.3813 19.745 24.4592L20.7846 25.0599L20.5621 26.2544C20.5333 26.4092 20.7146 26.512 20.829 26.406L21.7123 25.5865L22.7608 26.1708C22.8965 26.2465 23.049 26.1028 22.9851 25.9594L22.4914 24.852L23.362 24.0186C23.475 23.9113 23.3878 23.7196 23.2338 23.737Z" fill="#FFE15A"/>
</g>
<defs>
<clipPath id="clip0_231_2544">
<rect width="60" height="61" fill="white" transform="translate(0 0.188495) rotate(-0.18)"/>
</clipPath>
</defs>
</svg>
