<svg width="33" height="33" viewBox="0 0 33 33" fill="none" xmlns="http://www.w3.org/2000/svg">
<g opacity="0.5">
<path d="M22 4.125C21.2707 4.125 20.5712 4.41473 20.0555 4.93046C19.5397 5.44618 19.25 6.14565 19.25 6.875V15.125C19.25 15.8543 19.5397 16.5538 20.0555 17.0695C20.5712 17.5853 21.2707 17.875 22 17.875C22.3647 17.875 22.7144 18.0199 22.9723 18.2777C23.2301 18.5356 23.375 18.8853 23.375 19.25V20.625C23.375 21.3543 23.0853 22.0538 22.5695 22.5695C22.0538 23.0853 21.3543 23.375 20.625 23.375C20.2603 23.375 19.9106 23.5199 19.6527 23.7777C19.3949 24.0356 19.25 24.3853 19.25 24.75V27.5C19.25 27.8647 19.3949 28.2144 19.6527 28.4723C19.9106 28.7301 20.2603 28.875 20.625 28.875C22.813 28.875 24.9115 28.0058 26.4586 26.4586C28.0058 24.9115 28.875 22.813 28.875 20.625V6.875C28.875 6.14565 28.5853 5.44618 28.0695 4.93046C27.5538 4.41473 26.8543 4.125 26.125 4.125H22Z" stroke="white" stroke-width="2" stroke-linecap="round" stroke-linejoin="round"/>
<path d="M6.875 4.125C6.14565 4.125 5.44618 4.41473 4.93046 4.93046C4.41473 5.44618 4.125 6.14565 4.125 6.875V15.125C4.125 15.8543 4.41473 16.5538 4.93046 17.0695C5.44618 17.5853 6.14565 17.875 6.875 17.875C7.23967 17.875 7.58941 18.0199 7.84727 18.2777C8.10513 18.5356 8.25 18.8853 8.25 19.25V20.625C8.25 21.3543 7.96027 22.0538 7.44454 22.5695C6.92882 23.0853 6.22935 23.375 5.5 23.375C5.13533 23.375 4.78559 23.5199 4.52773 23.7777C4.26987 24.0356 4.125 24.3853 4.125 24.75V27.5C4.125 27.8647 4.26987 28.2144 4.52773 28.4723C4.78559 28.7301 5.13533 28.875 5.5 28.875C7.68804 28.875 9.78646 28.0058 11.3336 26.4586C12.8808 24.9115 13.75 22.813 13.75 20.625V6.875C13.75 6.14565 13.4603 5.44618 12.9445 4.93046C12.4288 4.41473 11.7293 4.125 11 4.125H6.875Z" stroke="white" stroke-width="2" stroke-linecap="round" stroke-linejoin="round"/>
</g>
</svg>
