<svg width="61" height="62" viewBox="0 0 61 62" fill="none" xmlns="http://www.w3.org/2000/svg">
<g clip-path="url(#clip0_231_2285)">
<path d="M59.1243 50.4857L1.19377 50.6677C0.622486 50.6695 0.157767 50.2 0.155942 49.6192L0.0369956 11.7574C0.035171 11.1765 0.49693 10.7041 1.06822 10.7023L58.9989 10.5203C59.5702 10.5185 60.0349 10.988 60.0367 11.5689L60.1556 49.4307C60.1574 50.0116 59.6956 50.4839 59.1243 50.4857Z" fill="#F5F5F5"/>
<path d="M30.1327 42.1626C36.417 42.1429 41.4952 36.9475 41.4751 30.5584C41.4551 24.1693 36.3443 19.0059 30.06 19.0257C23.7756 19.0454 18.6974 24.2408 18.7175 30.6299C18.7376 37.019 23.8483 42.1824 30.1327 42.1626Z" fill="#FF4B55"/>
</g>
<defs>
<clipPath id="clip0_231_2285">
<rect width="60" height="61" fill="white" transform="translate(0 0.188495) rotate(-0.18)"/>
</clipPath>
</defs>
</svg>
