<svg width="61" height="62" viewBox="0 0 61 62" fill="none" xmlns="http://www.w3.org/2000/svg">
<g clip-path="url(#clip0_231_2485)">
<path d="M59.1248 50.4857L1.19426 50.6677C0.622974 50.6695 0.158255 50.2 0.156431 49.6192L0.0374839 11.7574C0.0356593 11.1765 0.497419 10.7041 1.0687 10.7023L58.9994 10.5203C59.5706 10.5185 60.0354 10.988 60.0372 11.5689L60.1561 49.4307C60.1578 50.0116 59.6961 50.4839 59.1248 50.4857Z" fill="#F5F5F5"/>
<path d="M30.1322 42.1626C36.4165 42.1429 41.4947 36.9475 41.4747 30.5584C41.4546 24.1693 36.3438 19.0059 30.0595 19.0257C23.7751 19.0454 18.6969 24.2408 18.717 30.6299C18.7371 37.019 23.8478 42.1824 30.1322 42.1626Z" fill="#FF4B55"/>
</g>
<defs>
<clipPath id="clip0_231_2485">
<rect width="60" height="61" fill="white" transform="translate(0 0.188495) rotate(-0.18)"/>
</clipPath>
</defs>
</svg>
