<svg width="61" height="62" viewBox="0 0 61 62" fill="none" xmlns="http://www.w3.org/2000/svg">
<g clip-path="url(#clip0_231_2556)">
<path d="M60.0746 23.8389L0.0750551 24.0274L0.0365074 11.7574C0.0346827 11.1765 0.496442 10.7041 1.06773 10.7023L58.9984 10.5203C59.5697 10.5185 60.0344 10.988 60.0362 11.5689L60.0746 23.8389Z" fill="#F5F5F5"/>
<path d="M59.1241 50.4858L1.19356 50.6677C0.622278 50.6695 0.157559 50.2 0.155735 49.6192L0.117188 37.3493L60.1168 37.1608L60.1553 49.4307C60.1571 50.0117 59.6954 50.484 59.1241 50.4858Z" fill="#FF4B55"/>
<path d="M60.0748 23.8387L0.0751953 24.0272L0.117045 37.3483L60.1166 37.1598L60.0748 23.8387Z" fill="#41479B"/>
</g>
<defs>
<clipPath id="clip0_231_2556">
<rect width="60" height="61" fill="white" transform="translate(0 0.188495) rotate(-0.18)"/>
</clipPath>
</defs>
</svg>
