<svg width="61" height="61" viewBox="0 0 61 61" fill="none" xmlns="http://www.w3.org/2000/svg">
<g clip-path="url(#clip0_231_2492)">
<path d="M60.074 23.4483L0.074369 23.6368L0.0364532 11.5679C0.0346584 10.9966 0.496442 10.5319 1.06773 10.5301L58.9984 10.3481C59.5697 10.3463 60.0344 10.8081 60.0362 11.3794L60.074 23.4483Z" fill="#FAB446"/>
<path d="M59.1215 49.6583L1.19092 49.8403C0.619639 49.8421 0.154945 49.3804 0.15315 48.8091L0.115234 36.7403L60.1148 36.5518L60.1527 48.6206C60.1545 49.192 59.6927 49.6566 59.1215 49.6583Z" fill="#73AF00"/>
<path d="M60.0738 23.4481L0.0742188 23.6366L0.115382 36.7393L60.115 36.5508L60.0738 23.4481Z" fill="#F5F5F5"/>
<path d="M30.1118 35.6545C27.0457 35.6641 24.5437 33.1778 24.5341 30.1117C24.5244 27.0456 27.0108 24.5436 30.0769 24.5339C33.1429 24.5243 35.645 27.0107 35.6546 30.0767C35.6643 33.1428 33.1779 35.6449 30.1118 35.6545ZM30.0801 25.5683C27.5843 25.5762 25.5606 27.6126 25.5685 30.1084C25.5763 32.6043 27.6127 34.6279 30.1086 34.6201C32.6044 34.6122 34.6281 32.5758 34.6202 30.08C34.6124 27.5842 32.576 25.5605 30.0801 25.5683Z" fill="#41479B"/>
<path d="M30.0962 30.7247C30.4443 30.7236 30.7257 30.4405 30.7246 30.0923C30.7235 29.7442 30.4404 29.4629 30.0923 29.464C29.7441 29.4651 29.4628 29.7482 29.4639 30.0963C29.465 30.4444 29.7481 30.7258 30.0962 30.7247Z" fill="#41479B"/>
<path d="M30.0949 30.1889L28.4935 30.3557L25.0519 30.2048L25.0513 30.0156L28.4919 29.8431L30.0943 29.9998L30.0949 30.1889Z" fill="#41479B"/>
<path d="M30.0949 30.1889L31.6973 30.3456L35.1379 30.173L35.1373 29.9839L31.6957 29.833L30.0943 29.9997L30.0949 30.1889Z" fill="#41479B"/>
<path d="M29.9998 30.0947L29.8331 28.4932L29.984 25.0516L30.1731 25.051L30.3457 28.4916L30.189 30.0941L29.9998 30.0947Z" fill="#41479B"/>
<path d="M29.9996 30.0946L29.8429 31.6971L30.0154 35.1376L30.2046 35.137L30.3555 31.6954L30.1887 30.094L29.9996 30.0946Z" fill="#41479B"/>
<path d="M30.0278 30.1613L28.7775 29.147L26.4506 26.6066L26.5839 26.4725L29.1388 28.7834L30.161 30.0273L30.0278 30.1613Z" fill="#41479B"/>
<path d="M30.0287 30.1613L31.0509 31.4052L33.6058 33.7161L33.7391 33.582L31.4122 31.0416L30.1619 30.0273L30.0287 30.1613Z" fill="#41479B"/>
<path d="M30.0278 30.0278L31.0421 28.7775L33.5825 26.4506L33.7166 26.5839L31.4057 29.1388L30.1618 30.161L30.0278 30.0278Z" fill="#41479B"/>
<path d="M30.0279 30.0278L28.784 31.0499L26.4731 33.6048L26.6072 33.7381L29.1476 31.4112L30.1619 30.1609L30.0279 30.0278Z" fill="#41479B"/>
<path d="M30.1305 30.1816L28.7147 30.9485L25.4775 32.1261L25.4045 31.9516L28.5172 30.4755L30.0575 30.007L30.1305 30.1816Z" fill="#41479B"/>
<path d="M30.1308 30.1816L31.6712 29.7131L34.7838 28.237L34.7109 28.0625L31.4736 29.2401L30.0578 30.007L30.1308 30.1816Z" fill="#41479B"/>
<path d="M30.0072 30.1309L29.2403 28.7151L28.0627 25.4778L28.2372 25.4049L29.7133 28.5175L30.1818 30.0579L30.0072 30.1309Z" fill="#41479B"/>
<path d="M30.0071 30.1308L30.4756 31.6712L31.9516 34.7838L32.1261 34.7109L30.9486 31.4736L30.1817 30.0578L30.0071 30.1308Z" fill="#41479B"/>
<path d="M30.0583 30.1819L28.515 29.723L25.3931 28.2665L25.465 28.0916L28.7096 29.2488L30.1302 30.0068L30.0583 30.1819Z" fill="#41479B"/>
<path d="M30.0582 30.1819L31.4788 30.9399L34.7233 32.0971L34.7952 31.9222L31.6733 30.4657L30.13 30.0069L30.0582 30.1819Z" fill="#41479B"/>
<path d="M30.0068 30.0584L30.4657 28.5151L31.9221 25.3932L32.0971 25.4651L30.9399 28.7097L30.1819 30.1303L30.0068 30.0584Z" fill="#41479B"/>
<path d="M30.007 30.0584L29.249 31.479L28.0918 34.7236L28.2667 34.7955L29.7232 31.6736L30.182 30.1303L30.007 30.0584Z" fill="#41479B"/>
<path d="M30.0978 30.9445C30.5675 30.9431 30.947 30.5612 30.9455 30.0916C30.944 29.622 30.5621 29.2425 30.0925 29.2439C29.6229 29.2454 29.2434 29.6273 29.2449 30.0969C29.2463 30.5665 29.6282 30.946 30.0978 30.9445Z" fill="#F5F5F5"/>
<path d="M30.0961 30.6041C30.3777 30.6032 30.6053 30.3742 30.6044 30.0926C30.6035 29.811 30.3745 29.5835 30.0929 29.5844C29.8113 29.5852 29.5837 29.8142 29.5846 30.0958C29.5855 30.3774 29.8145 30.605 30.0961 30.6041Z" fill="#41479B"/>
</g>
<defs>
<clipPath id="clip0_231_2492">
<rect width="60" height="60" fill="white" transform="translate(0 0.188495) rotate(-0.18)"/>
</clipPath>
</defs>
</svg>
