<svg width="61" height="62" viewBox="0 0 61 62" fill="none" xmlns="http://www.w3.org/2000/svg">
<g clip-path="url(#clip0_231_2544)">
<path d="M59.1238 50.4859L1.19328 50.6679C0.621997 50.6697 0.157279 50.2002 0.155454 49.6194L0.0365074 11.7576C0.0346827 11.1768 0.496442 10.7044 1.06773 10.7026L58.9984 10.5206C59.5697 10.5188 60.0344 10.9883 60.0362 11.5691L60.1552 49.4309C60.1569 50.0118 59.6951 50.4841 59.1238 50.4859Z" fill="#FF4B55"/>
<path d="M10.0141 16.9242L11.0098 19.9275L14.127 19.9423C14.5306 19.9441 14.6996 20.4673 14.3756 20.712L11.874 22.6024L12.8237 25.6211C12.9465 26.0119 12.5095 26.3368 12.1804 26.0993L9.63869 24.2643L7.10855 26.1151C6.78095 26.3548 6.34189 26.0324 6.4623 25.6409L7.39299 22.6163L4.87952 20.7418C4.55403 20.4991 4.71973 19.9749 5.12331 19.9706L8.2404 19.9362L9.21719 16.9268C9.3437 16.537 9.88523 16.5353 10.0141 16.9242Z" fill="#FFE15A"/>
<path d="M21.336 17.6295L22.0463 18.6078L23.1865 18.2414C23.3341 18.194 23.4561 18.3649 23.3661 18.4928L22.6705 19.4816L23.3657 20.4708C23.4558 20.5988 23.3336 20.7697 23.186 20.7221L22.0459 20.355L21.3355 21.3329C21.2435 21.4595 21.0458 21.3941 21.0448 21.2369L21.0357 20.0211L19.9013 19.6361C19.7545 19.5862 19.7544 19.375 19.9013 19.3253L21.0357 18.9409L21.0452 17.7252C21.0464 17.568 21.2441 17.503 21.336 17.6295Z" fill="#FFE15A"/>
<path d="M17.0212 14.7207L18.2105 14.8483L18.7142 13.7457C18.7795 13.603 18.9858 13.6268 19.0179 13.7807L19.2661 14.9699L20.4532 15.1163C20.6069 15.1353 20.6485 15.3422 20.5143 15.4209L19.4785 16.0282L19.7085 17.2213C19.7383 17.3758 19.5576 17.4798 19.4425 17.3745L18.5542 16.5606L17.5093 17.1515C17.3741 17.228 17.2207 17.0853 17.2838 16.9415L17.7705 15.831L16.8946 15.0031C16.7813 14.8965 16.8673 14.7043 17.0212 14.7207Z" fill="#FFE15A"/>
<path d="M18.9375 26.4969L18.2334 27.4796L17.091 27.1203C16.943 27.0738 16.8221 27.2455 16.9129 27.3728L17.6147 28.3572L16.9257 29.3508C16.8365 29.4794 16.9597 29.6495 17.107 29.601L18.2447 29.2268L18.9613 30.2002C19.0541 30.3262 19.2513 30.2596 19.2514 30.1023L19.2529 28.8864L20.3849 28.4944C20.5314 28.4435 20.5301 28.2324 20.3828 28.1835L19.2461 27.8063L19.2289 26.5907C19.2265 26.4337 19.0286 26.3696 18.9375 26.4969Z" fill="#FFE15A"/>
<path d="M23.2338 23.7369L22.0453 23.8719L21.5347 22.7726C21.4685 22.6303 21.2623 22.6554 21.2312 22.8095L20.9903 24.0002L19.8042 24.1541C19.6506 24.174 19.6104 24.3812 19.745 24.459L20.7846 25.0598L20.5621 26.2543C20.5333 26.409 20.7146 26.5119 20.829 26.4058L21.7123 25.5864L22.7608 26.1707C22.8965 26.2464 23.049 26.1027 22.9851 25.9593L22.4914 24.8519L23.362 24.0185C23.475 23.9112 23.3878 23.7195 23.2338 23.7369Z" fill="#FFE15A"/>
</g>
<defs>
<clipPath id="clip0_231_2544">
<rect width="60" height="61" fill="white" transform="translate(0 0.188495) rotate(-0.18)"/>
</clipPath>
</defs>
</svg>
