<svg width="61" height="61" viewBox="0 0 61 61" fill="none" xmlns="http://www.w3.org/2000/svg">
<g clip-path="url(#clip0_231_2521)">
<path d="M60.0406 13.1529L0.0410479 13.3414L0.0354766 11.568C0.0336819 10.9967 0.495466 10.532 1.06675 10.5302L58.9974 10.3482C59.5687 10.3464 60.0334 10.8082 60.0352 11.3795L60.0406 13.1529Z" fill="#FF4B55"/>
<path d="M60.0406 13.1521L0.0410156 13.3406L0.0498366 16.1484L60.0494 15.9599L60.0406 13.1521Z" fill="#F5F5F5"/>
<path d="M60.0494 15.9612L0.0498047 16.1497L0.0586256 18.9575L60.0582 18.769L60.0494 15.9612Z" fill="#FF4B55"/>
<path d="M60.0582 18.7678L0.0585938 18.9563L0.0674147 21.7641L60.067 21.5756L60.0582 18.7678Z" fill="#F5F5F5"/>
<path d="M60.067 21.5767L0.0673828 21.7652L0.0762038 24.5729L60.0758 24.3845L60.067 21.5767Z" fill="#FF4B55"/>
<path d="M60.0758 24.3845L0.0761719 24.573L0.0849928 27.3808L60.0846 27.1923L60.0758 24.3845Z" fill="#F5F5F5"/>
<path d="M60.0845 27.1921L0.0849609 27.3806L0.0937819 30.1884L60.0934 29.9999L60.0845 27.1921Z" fill="#FF4B55"/>
<path d="M60.0933 30L0.09375 30.1885L0.102571 32.9963L60.1022 32.8078L60.0933 30Z" fill="#F5F5F5"/>
<path d="M60.1107 35.616L0.111072 35.8045L0.0966797 31.2232L1.1312 31.2199L1.13701 32.9932L60.1018 32.8079L60.1107 35.616Z" fill="#FF4B55"/>
<path d="M60.1109 35.6157L0.111328 35.8042L0.120149 38.612L60.1197 38.4235L60.1109 35.6157Z" fill="#F5F5F5"/>
<path d="M60.1197 38.4233L0.120117 38.6118L0.128938 41.4196L60.1285 41.2311L60.1197 38.4233Z" fill="#FF4B55"/>
<path d="M60.1285 41.2324L0.128906 41.4209L0.137727 44.2287L60.1373 44.0402L60.1285 41.2324Z" fill="#F5F5F5"/>
<path d="M60.1373 44.0391L0.137695 44.2276L0.146516 47.0353L60.1461 46.8469L60.1373 44.0391Z" fill="#FF4B55"/>
<path d="M59.1204 49.6583L1.18983 49.8403C0.618545 49.8421 0.15385 49.3803 0.152056 48.809L0.146484 47.0357L60.1461 46.8472L60.1516 48.6206C60.1534 49.192 59.6917 49.6565 59.1204 49.6583Z" fill="#F5F5F5"/>
<path d="M36.3095 32.8826L1.13732 32.9931C0.566035 32.9949 0.101341 32.5332 0.099546 31.9619L0.0354766 11.568C0.0336819 10.9967 0.495466 10.532 1.06675 10.5302L36.2389 10.4197C36.8102 10.4179 37.2749 10.8797 37.2767 11.451L37.3408 31.8449C37.3425 32.4164 36.8808 32.8809 36.3095 32.8826Z" fill="#41479B"/>
<path d="M9.89298 21.7229C9.88069 17.8104 13.0465 14.6267 16.9554 14.6144C17.9389 14.6113 18.8747 14.8097 19.7275 15.1698C19.8382 15.2166 19.921 15.0625 19.8216 14.9951C18.4094 14.0402 16.6844 13.52 14.8362 13.6219C10.7729 13.846 7.46015 17.1298 7.21017 21.1916C6.91951 25.9161 10.6696 29.8174 15.3184 29.8028C16.9984 29.7975 18.5584 29.275 19.8525 28.3933C19.9522 28.3254 19.8689 28.1715 19.7581 28.2189C18.9103 28.5815 17.9796 28.7841 17.0001 28.7872C13.091 28.7994 9.90527 25.6356 9.89298 21.7229Z" fill="#FFE15A"/>
<path d="M26.0877 21.6721L29.0791 20.5038C29.227 20.446 29.1759 20.225 29.0176 20.2382L25.8183 20.5045L28.01 18.1469C28.1182 18.0306 27.9763 17.854 27.8394 17.9344L25.0651 19.5645L26.0147 16.494C26.0616 16.3424 25.8572 16.2448 25.7689 16.3765L23.978 19.0476L23.5064 15.8677C23.4831 15.7106 23.2563 15.7112 23.2338 15.8684L22.9453 17.8824L22.8256 18.7347L22.7795 19.0515L20.9718 16.3939C20.8826 16.2627 20.6785 16.3618 20.7267 16.5131L21.6991 19.5749L18.9148 17.9623C18.7775 17.8827 18.6367 18.0603 18.7456 18.1759L20.952 20.5197L17.7502 20.2735C17.5919 20.2613 17.5421 20.4826 17.6904 20.5395L20.6917 21.6889L17.6975 22.8574C17.5495 22.9152 17.6008 23.1361 17.7591 23.123L20.9593 22.8567L18.7676 25.2202C18.6596 25.3367 18.8018 25.513 18.9385 25.4325L21.7125 23.7966L20.7593 26.8645C20.7122 27.0161 20.9167 27.114 21.0052 26.9821L22.7961 24.3133L22.8443 24.6373L22.9693 25.4813L23.2706 27.4988C23.294 27.656 23.5209 27.6551 23.5431 27.4978L23.9947 24.3097L25.8024 26.9695C25.8916 27.1007 26.0954 27.002 26.0475 26.8505L25.0786 23.786L27.8628 25.4044C28 25.4841 28.141 25.3069 28.0324 25.1911L25.8257 22.8414L29.0268 23.0876C29.1852 23.0998 29.235 22.8785 29.0867 22.8216L26.0877 21.6721Z" fill="#FFE15A"/>
</g>
<defs>
<clipPath id="clip0_231_2521">
<rect width="60" height="60" fill="white" transform="translate(0 0.188495) rotate(-0.18)"/>
</clipPath>
</defs>
</svg>
