<svg width="29" height="29" viewBox="0 0 29 29" fill="none" xmlns="http://www.w3.org/2000/svg">
<g clip-path="url(#clip0_231_2441)">
<path d="M11.8373 18.5892L13.4887 16.9274C10.2948 14.1024 8.20051 12.1956 8.19479 10.3756C8.19095 9.15063 9.12134 8.21437 10.3463 8.21052C11.6413 8.20645 12.1454 8.9632 13.4803 10.534L14.5653 10.5306C15.8672 8.99818 16.343 8.19168 17.6846 8.18746C18.6996 8.18427 19.4949 8.81178 19.7545 9.72097C20.1626 9.67302 20.5476 9.64848 20.9209 9.6473C21.3409 9.64598 21.7377 9.67974 22.1229 9.73686C21.8359 7.50942 19.999 5.84685 17.689 5.8541C17.549 5.85454 17.4207 5.88995 17.2808 5.90205C17.4196 5.51662 17.5117 5.11966 17.5103 4.68799C17.5042 2.75134 15.936 1.19292 13.9993 1.19901C12.0627 1.20509 10.5043 2.77333 10.5103 4.70998C10.5117 5.14165 10.6063 5.53802 10.7475 5.92258C10.6074 5.91135 10.479 5.87676 10.339 5.87719C7.81902 5.88511 5.85356 7.86296 5.86147 10.383C5.87034 13.2063 8.25726 15.4038 11.8373 18.5892Z" fill="white"/>
<path d="M26.3051 18.9404C25.9311 18.7316 25.5341 18.6045 25.1372 18.5358C25.2185 18.4188 25.3115 18.3252 25.3812 18.2083C26.6343 16.0227 25.9025 13.33 23.7169 12.0769C21.2741 10.6729 18.1621 11.6393 13.6286 13.1586L14.2423 15.42C18.2865 14.0773 20.9904 13.2054 22.5683 14.1105C23.6319 14.7255 23.9742 15.9844 23.3709 17.0596C22.7211 18.1817 21.8229 18.2312 19.7941 18.6109L19.2487 19.5576C19.9313 21.4455 20.3889 22.2724 19.7159 23.4295C19.1009 24.4931 17.8419 24.8354 16.7667 24.2321C16.6966 24.1973 16.638 24.1275 16.5679 24.0811C16.2204 24.8638 15.8258 25.5301 15.3726 26.1031C15.4544 26.1496 15.5246 26.2077 15.6064 26.2657C17.792 27.5189 20.4847 26.7871 21.7379 24.6015C21.8075 24.4846 21.8421 24.3562 21.9 24.2276C22.1577 24.5418 22.4619 24.8209 22.8359 25.0297C24.5073 25.9928 26.6521 25.4144 27.6152 23.7313C28.5782 22.0483 27.9765 19.8919 26.3051 18.9404Z" fill="white"/>
<path d="M14.4203 16.3761C13.5701 20.5555 12.9605 23.3224 11.3884 24.2373C10.3286 24.859 9.05592 24.5247 8.43421 23.4533C7.77737 22.3353 8.1948 21.5173 8.87704 19.5785L8.33741 18.6352C6.35295 18.2798 5.41955 18.2594 4.75092 17.1065C4.12926 16.0468 4.46359 14.774 5.53498 14.1523C5.6398 14.0937 5.75635 14.0583 5.87291 14.0229C5.46252 13.3709 5.12196 12.6603 4.90947 11.8676C4.72306 11.9499 4.53665 12.0321 4.35031 12.1377C2.17261 13.4046 1.45775 16.1018 2.7246 18.2795C2.79496 18.396 2.88859 18.489 2.97062 18.6054C2.57418 18.6767 2.17792 18.8062 1.80524 19.0174C0.139962 19.991 -0.436661 22.1278 0.536945 23.8047C1.51055 25.4817 3.64734 26.0467 5.32429 25.073C5.69696 24.8619 5.99941 24.5809 6.25509 24.2651C6.31382 24.3933 6.34923 24.5215 6.41959 24.6379C7.68644 26.8156 10.3837 27.5305 12.5614 26.2636C14.9953 24.8443 15.7086 21.6687 16.6739 16.9873L14.4203 16.3761Z" fill="white"/>
</g>
<defs>
<clipPath id="clip0_231_2441">
<rect width="28" height="28" fill="white" transform="translate(0 0.0879644) rotate(-0.18)"/>
</clipPath>
</defs>
</svg>
