<svg width="61" height="61" viewBox="0 0 61 61" fill="none" xmlns="http://www.w3.org/2000/svg">
<g clip-path="url(#clip0_231_2292)">
<path d="M60.074 23.4484L0.074369 23.6369L0.0364532 11.568C0.0346584 10.9967 0.496442 10.532 1.06773 10.5302L58.9984 10.3482C59.5697 10.3464 60.0344 10.8082 60.0362 11.3795L60.074 23.4484Z" fill="#FAB446"/>
<path d="M59.122 49.6583L1.19141 49.8403C0.620127 49.8421 0.155433 49.3804 0.153638 48.8091L0.115723 36.7403L60.1153 36.5518L60.1532 48.6206C60.155 49.192 59.6932 49.6566 59.122 49.6583Z" fill="#73AF00"/>
<path d="M60.0738 23.448L0.0742188 23.6365L0.115382 36.7391L60.115 36.5506L60.0738 23.448Z" fill="#F5F5F5"/>
<path d="M30.1118 35.6546C27.0457 35.6642 24.5437 33.1779 24.5341 30.1118C24.5244 27.0457 27.0108 24.5437 30.0769 24.5341C33.1429 24.5244 35.645 27.0108 35.6546 30.0769C35.6643 33.1429 33.1779 35.645 30.1118 35.6546ZM30.0801 25.5685C27.5843 25.5763 25.5606 27.6127 25.5685 30.1086C25.5763 32.6044 27.6127 34.628 30.1086 34.6202C32.6044 34.6124 34.6281 32.576 34.6202 30.0801C34.6124 27.5843 32.576 25.5606 30.0801 25.5685Z" fill="#41479B"/>
<path d="M30.0962 30.7248C30.4443 30.7237 30.7257 30.4406 30.7246 30.0925C30.7235 29.7443 30.4404 29.463 30.0923 29.4641C29.7441 29.4652 29.4628 29.7483 29.4639 30.0964C29.465 30.4446 29.7481 30.7259 30.0962 30.7248Z" fill="#41479B"/>
<path d="M30.0954 30.189L28.4939 30.3558L25.0524 30.2049L25.0518 30.0157L28.4923 29.8432L30.0948 29.9999L30.0954 30.189Z" fill="#41479B"/>
<path d="M30.0953 30.189L31.6978 30.3457L35.1383 30.1732L35.1378 29.984L31.6962 29.8331L30.0947 29.9999L30.0953 30.189Z" fill="#41479B"/>
<path d="M29.9998 30.0948L29.8331 28.4933L29.984 25.0518L30.1731 25.0512L30.3457 28.4917L30.189 30.0942L29.9998 30.0948Z" fill="#41479B"/>
<path d="M30.0001 30.0947L29.8434 31.6972L30.0159 35.1377L30.2051 35.1371L30.356 31.6956L30.1892 30.0941L30.0001 30.0947Z" fill="#41479B"/>
<path d="M30.0283 30.1615L28.778 29.1472L26.4511 26.6069L26.5844 26.4727L29.1393 28.7836L30.1615 30.0275L30.0283 30.1615Z" fill="#41479B"/>
<path d="M30.0283 30.1614L31.0504 31.4053L33.6053 33.7162L33.7386 33.5821L31.4117 31.0417L30.1614 30.0274L30.0283 30.1614Z" fill="#41479B"/>
<path d="M30.0278 30.0279L31.0421 28.7776L33.5825 26.4507L33.7166 26.584L31.4057 29.1389L30.1618 30.1611L30.0278 30.0279Z" fill="#41479B"/>
<path d="M30.0279 30.0279L28.784 31.05L26.4731 33.605L26.6072 33.7382L29.1476 31.4114L30.1619 30.1611L30.0279 30.0279Z" fill="#41479B"/>
<path d="M30.131 30.1817L28.7152 30.9486L25.478 32.1262L25.405 31.9517L28.5177 30.4757L30.058 30.0071L30.131 30.1817Z" fill="#41479B"/>
<path d="M30.1308 30.1819L31.6712 29.7133L34.7838 28.2373L34.7109 28.0628L31.4736 29.2404L30.0578 30.0072L30.1308 30.1819Z" fill="#41479B"/>
<path d="M30.0072 30.131L29.2403 28.7152L28.0627 25.478L28.2372 25.405L29.7133 28.5177L30.1818 30.058L30.0072 30.131Z" fill="#41479B"/>
<path d="M30.0071 30.131L30.4756 31.6714L31.9516 34.7841L32.1261 34.7111L30.9486 31.4739L30.1817 30.0581L30.0071 30.131Z" fill="#41479B"/>
<path d="M30.0583 30.1821L28.515 29.7232L25.3931 28.2668L25.465 28.0918L28.7096 29.2491L30.1302 30.007L30.0583 30.1821Z" fill="#41479B"/>
<path d="M30.0582 30.1819L31.4788 30.9399L34.7233 32.0971L34.7952 31.9222L31.6733 30.4657L30.13 30.0069L30.0582 30.1819Z" fill="#41479B"/>
<path d="M30.0068 30.0585L30.4657 28.5153L31.9221 25.3934L32.0971 25.4652L30.9399 28.7098L30.1819 30.1304L30.0068 30.0585Z" fill="#41479B"/>
<path d="M30.007 30.0584L29.249 31.479L28.0918 34.7236L28.2667 34.7955L29.7232 31.6736L30.182 30.1303L30.007 30.0584Z" fill="#41479B"/>
<path d="M30.0973 30.9445C30.567 30.9431 30.9465 30.5612 30.945 30.0916C30.9435 29.622 30.5616 29.2425 30.092 29.2439C29.6224 29.2454 29.2429 29.6273 29.2444 30.0969C29.2458 30.5665 29.6277 30.946 30.0973 30.9445Z" fill="#F5F5F5"/>
<path d="M30.0966 30.6041C30.3782 30.6032 30.6057 30.3742 30.6049 30.0926C30.604 29.811 30.375 29.5835 30.0934 29.5844C29.8118 29.5852 29.5842 29.8142 29.5851 30.0958C29.586 30.3774 29.815 30.605 30.0966 30.6041Z" fill="#41479B"/>
</g>
<defs>
<clipPath id="clip0_231_2292">
<rect width="60" height="60" fill="white" transform="translate(0 0.188495) rotate(-0.18)"/>
</clipPath>
</defs>
</svg>
