<svg width="61" height="62" viewBox="0 0 61 62" fill="none" xmlns="http://www.w3.org/2000/svg">
<g clip-path="url(#clip0_231_2456)">
<path d="M60.0746 23.8389L0.0750551 24.0274L0.0365074 11.7574C0.0346827 11.1765 0.496442 10.7041 1.06773 10.7023L58.9984 10.5203C59.5697 10.5185 60.0344 10.988 60.0362 11.5689L60.0746 23.8389Z" fill="#F5F5F5"/>
<path d="M59.1236 50.4856L1.19307 50.6676C0.62179 50.6694 0.157071 50.1999 0.155247 49.6191L0.116699 37.3491L60.1163 37.1606L60.1548 49.4306C60.1567 50.0115 59.6949 50.4838 59.1236 50.4856Z" fill="#FF4B55"/>
<path d="M60.0748 23.8386L0.0751953 24.0271L0.117045 37.3481L60.1166 37.1596L60.0748 23.8386Z" fill="#41479B"/>
</g>
<defs>
<clipPath id="clip0_231_2456">
<rect width="60" height="61" fill="white" transform="translate(0 0.188495) rotate(-0.18)"/>
</clipPath>
</defs>
</svg>
