<svg width="64" height="64" viewBox="0 0 64 64" fill="none" xmlns="http://www.w3.org/2000/svg">
<path d="M0 32C0 14.3269 14.3269 0 32 0C49.6731 0 64 14.3269 64 32C64 49.6731 49.6731 64 32 64C14.3269 64 0 49.6731 0 32Z" fill="#1A237E"/>
<path d="M38.4001 26.2666C38.01 27.4368 37.2075 28.335 36.0715 28.8386C32.4228 30.4561 29.7896 33.0893 28.1721 36.738C27.6685 37.874 26.7703 38.6765 25.6001 39.0666" stroke="white" stroke-width="1.5" stroke-linejoin="round"/>
<path d="M17.92 46.7467L16 48.6667M46.08 18.5867L48 16.6667" stroke="white" stroke-width="1.5" stroke-linecap="round" stroke-linejoin="round"/>
<path d="M22.7079 35.7641L23.2382 35.2338L22.7079 35.7641ZM28.9026 41.9588L28.3723 42.4892L28.9026 41.9588ZM25.1858 45.6757L25.7161 45.1453H25.7161L25.1858 45.6757ZM27.7147 46.675L28.0017 47.3679L27.7147 46.675ZM26.3737 46.675L26.0867 47.3679H26.0867L26.3737 46.675ZM29.9019 43.1467L30.5948 42.8597L30.5948 42.8597L29.9019 43.1467ZM29.9019 44.4878L30.5948 44.7748H30.5948L29.9019 44.4878ZM20.179 34.7648L19.892 34.0719L20.179 34.7648ZM21.52 34.7648L21.807 34.0719H21.807L21.52 34.7648ZM17.9918 36.952L17.2989 36.665L17.9918 36.952ZM17.9918 38.293L17.2989 38.5801L17.9918 38.293ZM23.9469 46.9146L24.4772 47.4449V47.4449L23.9469 46.9146ZM18.9911 46.9146L18.4607 47.4449L18.4607 47.4449L18.9911 46.9146ZM17.7521 45.6757L18.2825 45.1453H18.2825L17.7521 45.6757ZM21.469 48.6667L21.469 47.9167H21.469L21.469 48.6667ZM35.0974 23.3747L34.567 23.905L35.0974 23.3747ZM41.2921 29.5694L41.8224 29.0391L41.2921 29.5694ZM45.0089 25.8526L44.4786 26.3829V26.3829L45.0089 25.8526ZM46.0082 28.3815L46.7011 28.6685L46.0082 28.3815ZM46.0082 27.0405L46.7011 26.7534V26.7534L46.0082 27.0405ZM42.48 30.5687L42.193 31.2616L42.193 31.2616L42.48 30.5687ZM43.821 30.5687L44.108 31.2616V31.2616L43.821 30.5687ZM34.0981 20.8457L33.4052 20.5587L34.0981 20.8457ZM34.0981 22.1868L33.4052 22.4738V22.4738L34.0981 22.1868ZM36.2853 18.6585L35.9983 17.9656L36.2853 18.6585ZM37.6263 18.6585L37.9133 17.9656L37.6263 18.6585ZM46.2479 24.6136L46.7782 25.1439H46.7782L46.2479 24.6136ZM46.2479 19.6578L46.7782 19.1275L46.7782 19.1275L46.2479 19.6578ZM45.0089 18.4189L44.4786 18.9492V18.9492L45.0089 18.4189ZM48 22.1357L47.25 22.1357V22.1357L48 22.1357ZM22.7079 35.7641L22.1776 36.2944L28.3723 42.4892L28.9026 41.9588L29.433 41.4285L23.2382 35.2338L22.7079 35.7641ZM25.1858 45.6757L25.7161 45.1453L19.5214 38.9506L18.9911 39.4809L18.4607 40.0113L24.6555 46.206L25.1858 45.6757ZM28.9026 45.6757L28.3723 45.1453C28.0764 45.4412 27.8808 45.6363 27.72 45.7766C27.5642 45.9124 27.4821 45.9595 27.4277 45.982L27.7147 46.675L28.0017 47.3679C28.2694 47.257 28.4925 47.0931 28.706 46.907C28.9143 46.7253 29.1516 46.4874 29.433 46.206L28.9026 45.6757ZM25.1858 45.6757L24.6555 46.206C24.9369 46.4874 25.1742 46.7253 25.3825 46.907C25.5959 47.0931 25.8191 47.257 26.0867 47.3679L26.3737 46.675L26.6607 45.982C26.6063 45.9595 26.5242 45.9124 26.3685 45.7766C26.2077 45.6363 26.012 45.4412 25.7161 45.1453L25.1858 45.6757ZM27.7147 46.675L27.4277 45.982C27.1822 46.0838 26.9063 46.0838 26.6607 45.982L26.3737 46.675L26.0867 47.3679C26.6998 47.6218 27.3887 47.6218 28.0017 47.3679L27.7147 46.675ZM28.9026 41.9588L28.3723 42.4892C28.6682 42.7851 28.8633 42.9807 29.0035 43.1415C29.1394 43.2972 29.1865 43.3794 29.209 43.4338L29.9019 43.1467L30.5948 42.8597C30.484 42.5921 30.3201 42.3689 30.1339 42.1555C29.9522 41.9472 29.7143 41.7099 29.433 41.4285L28.9026 41.9588ZM28.9026 45.6757L29.433 46.206C29.7143 45.9246 29.9522 45.6873 30.1339 45.479C30.3201 45.2656 30.484 45.0424 30.5948 44.7748L29.9019 44.4878L29.209 44.2008C29.1865 44.2551 29.1394 44.3373 29.0035 44.493C28.8633 44.6538 28.6682 44.8494 28.3723 45.1453L28.9026 45.6757ZM29.9019 43.1467L29.209 43.4338C29.3107 43.6793 29.3107 43.9552 29.209 44.2008L29.9019 44.4878L30.5948 44.7748C30.8488 44.1617 30.8488 43.4728 30.5948 42.8597L29.9019 43.1467ZM18.9911 35.7641L19.5214 36.2944C19.8173 35.9985 20.0129 35.8035 20.1738 35.6632C20.3295 35.5274 20.4116 35.4803 20.466 35.4577L20.179 34.7648L19.892 34.0719C19.6244 34.1828 19.4012 34.3467 19.1878 34.5328C18.9794 34.7145 18.7421 34.9524 18.4607 35.2338L18.9911 35.7641ZM22.7079 35.7641L23.2382 35.2338C22.9569 34.9524 22.7196 34.7145 22.5112 34.5328C22.2978 34.3467 22.0746 34.1828 21.807 34.0719L21.52 34.7648L21.233 35.4577C21.2874 35.4803 21.3695 35.5274 21.5252 35.6632C21.686 35.8035 21.8817 35.9985 22.1776 36.2944L22.7079 35.7641ZM20.179 34.7648L20.466 35.4577C20.7115 35.356 20.9874 35.356 21.233 35.4577L21.52 34.7648L21.807 34.0719C21.1939 33.818 20.5051 33.818 19.892 34.0719L20.179 34.7648ZM18.9911 35.7641L18.4607 35.2338C18.1794 35.5152 17.9415 35.7525 17.7598 35.9608C17.5736 36.1742 17.4097 36.3974 17.2989 36.665L17.9918 36.952L18.6847 37.239C18.7072 37.1847 18.7543 37.1025 18.8902 36.9468C19.0304 36.786 19.2255 36.5903 19.5214 36.2944L18.9911 35.7641ZM18.9911 39.4809L19.5214 38.9506C19.2255 38.6547 19.0304 38.4591 18.8902 38.2983C18.7543 38.1425 18.7072 38.0604 18.6847 38.006L17.9918 38.293L17.2989 38.5801C17.4097 38.8477 17.5736 39.0708 17.7598 39.2843C17.9415 39.4926 18.1794 39.7299 18.4607 40.0113L18.9911 39.4809ZM17.9918 36.952L17.2989 36.665C17.0449 37.2781 17.0449 37.967 17.2989 38.5801L17.9918 38.293L18.6847 38.006C18.583 37.7605 18.583 37.4846 18.6847 37.239L17.9918 36.952ZM17.7521 40.7199L18.2825 41.2502L19.5214 40.0113L18.9911 39.4809L18.4607 38.9506L17.2218 40.1896L17.7521 40.7199ZM25.1858 45.6757L24.6555 45.1453L23.4165 46.3843L23.9469 46.9146L24.4772 47.4449L25.7161 46.206L25.1858 45.6757ZM18.9911 46.9146L19.5214 46.3843L18.2825 45.1453L17.7521 45.6757L17.2218 46.206L18.4607 47.4449L18.9911 46.9146ZM23.9469 46.9146L23.4165 46.3843C22.8175 46.9833 22.4204 47.3781 22.0871 47.6324C21.7711 47.8736 21.6019 47.9167 21.469 47.9167L21.469 48.6667V49.4167C22.0618 49.4167 22.5475 49.1679 22.997 48.825C23.4291 48.4953 23.9081 48.014 24.4772 47.4449L23.9469 46.9146ZM18.9911 46.9146L18.4607 47.4449C19.0298 48.014 19.5088 48.4953 19.941 48.825C20.3904 49.1679 20.8762 49.4167 21.469 49.4167L21.469 48.6667L21.469 47.9167C21.336 47.9167 21.1669 47.8736 20.8508 47.6324C20.5175 47.3781 20.1204 46.9833 19.5214 46.3843L18.9911 46.9146ZM17.7521 40.7199L17.2218 40.1896C16.6528 40.7586 16.1715 41.2376 15.8418 41.6698C15.4988 42.1192 15.25 42.605 15.25 43.1978H16H16.75C16.75 43.0648 16.7932 42.8957 17.0343 42.5796C17.2886 42.2463 17.6834 41.8493 18.2825 41.2502L17.7521 40.7199ZM17.7521 45.6757L18.2825 45.1453C17.6834 44.5463 17.2886 44.1493 17.0343 43.8159C16.7932 43.4999 16.75 43.3307 16.75 43.1978H16H15.25C15.25 43.7906 15.4988 44.2763 15.8418 44.7258C16.1715 45.1579 16.6528 45.6369 17.2218 46.206L17.7521 45.6757ZM35.0974 23.3747L34.567 23.905L40.7618 30.0997L41.2921 29.5694L41.8224 29.0391L35.6277 22.8443L35.0974 23.3747ZM45.0089 25.8526L45.5393 25.3222L39.3445 19.1275L38.8142 19.6578L38.2839 20.1882L44.4786 26.3829L45.0089 25.8526ZM45.0089 29.5694L45.5393 30.0997C45.8206 29.8183 46.0585 29.581 46.2402 29.3727C46.4264 29.1593 46.5903 28.9361 46.7011 28.6685L46.0082 28.3815L45.3153 28.0945C45.2928 28.1488 45.2457 28.231 45.1098 28.3867C44.9696 28.5475 44.7745 28.7432 44.4786 29.0391L45.0089 29.5694ZM45.0089 25.8526L44.4786 26.3829C44.7745 26.6788 44.9696 26.8744 45.1098 27.0352C45.2457 27.191 45.2928 27.2731 45.3153 27.3275L46.0082 27.0405L46.7011 26.7534C46.5903 26.4858 46.4264 26.2626 46.2402 26.0492C46.0585 25.8409 45.8206 25.6036 45.5393 25.3222L45.0089 25.8526ZM46.0082 28.3815L46.7011 28.6685C46.9551 28.0554 46.9551 27.3665 46.7011 26.7534L46.0082 27.0405L45.3153 27.3275C45.417 27.573 45.417 27.8489 45.3153 28.0945L46.0082 28.3815ZM41.2921 29.5694L40.7618 30.0997C41.0431 30.3811 41.2804 30.619 41.4888 30.8007C41.7022 30.9868 41.9254 31.1507 42.193 31.2616L42.48 30.5687L42.767 29.8758C42.7126 29.8532 42.6305 29.8061 42.4748 29.6703C42.314 29.53 42.1183 29.3349 41.8224 29.0391L41.2921 29.5694ZM45.0089 29.5694L44.4786 29.0391C44.1827 29.3349 43.987 29.53 43.8262 29.6703C43.6705 29.8061 43.5884 29.8532 43.534 29.8758L43.821 30.5687L44.108 31.2616C44.3756 31.1507 44.5988 30.9868 44.8122 30.8007C45.0206 30.619 45.2579 30.3811 45.5393 30.0997L45.0089 29.5694ZM42.48 30.5687L42.193 31.2616C42.8061 31.5155 43.4949 31.5155 44.108 31.2616L43.821 30.5687L43.534 29.8758C43.2885 29.9775 43.0126 29.9775 42.767 29.8758L42.48 30.5687ZM35.0974 19.6578L34.567 19.1275C34.2857 19.4089 34.0478 19.6462 33.8661 19.8545C33.6799 20.0679 33.516 20.2911 33.4052 20.5587L34.0981 20.8457L34.791 21.1327C34.8135 21.0784 34.8606 20.9962 34.9965 20.8405C35.1367 20.6797 35.3318 20.4841 35.6277 20.1882L35.0974 19.6578ZM35.0974 23.3747L35.6277 22.8443C35.3318 22.5484 35.1367 22.3528 34.9965 22.192C34.8606 22.0363 34.8135 21.9541 34.791 21.8997L34.0981 22.1868L33.4052 22.4738C33.516 22.7414 33.6799 22.9646 33.8661 23.178C34.0478 23.3863 34.2857 23.6236 34.567 23.905L35.0974 23.3747ZM34.0981 20.8457L33.4052 20.5587C33.1512 21.1718 33.1512 21.8607 33.4052 22.4738L34.0981 22.1868L34.791 21.8997C34.6893 21.6542 34.6893 21.3783 34.791 21.1327L34.0981 20.8457ZM35.0974 19.6578L35.6277 20.1882C35.9236 19.8923 36.1192 19.6972 36.28 19.5569C36.4358 19.4211 36.5179 19.374 36.5723 19.3514L36.2853 18.6585L35.9983 17.9656C35.7306 18.0765 35.5075 18.2404 35.294 18.4265C35.0857 18.6082 34.8484 18.8461 34.567 19.1275L35.0974 19.6578ZM38.8142 19.6578L39.3445 19.1275C39.0631 18.8461 38.8258 18.6082 38.6175 18.4265C38.4041 18.2404 38.1809 18.0765 37.9133 17.9656L37.6263 18.6585L37.3393 19.3514C37.3937 19.374 37.4758 19.4211 37.6315 19.5569C37.7923 19.6972 37.988 19.8923 38.2839 20.1882L38.8142 19.6578ZM36.2853 18.6585L36.5723 19.3514C36.8178 19.2497 37.0937 19.2497 37.3393 19.3514L37.6263 18.6585L37.9133 17.9656C37.3002 17.7117 36.6113 17.7117 35.9983 17.9656L36.2853 18.6585ZM40.0531 18.4189L39.5228 17.8886L38.2839 19.1275L38.8142 19.6578L39.3445 20.1882L40.5835 18.9492L40.0531 18.4189ZM45.0089 25.8526L45.5393 26.3829L46.7782 25.1439L46.2479 24.6136L45.7175 24.0833L44.4786 25.3222L45.0089 25.8526ZM46.2479 19.6578L46.7782 19.1275L45.5393 17.8886L45.0089 18.4189L44.4786 18.9492L45.7175 20.1882L46.2479 19.6578ZM46.2479 24.6136L46.7782 25.1439C47.3472 24.5749 47.8285 24.0959 48.1582 23.6637C48.5012 23.2143 48.75 22.7285 48.75 22.1357H48L47.25 22.1357C47.25 22.2687 47.2068 22.4378 46.9657 22.7539C46.7114 23.0872 46.3166 23.4842 45.7175 24.0833L46.2479 24.6136ZM46.2479 19.6578L45.7175 20.1882C46.3166 20.7872 46.7114 21.1842 46.9657 21.5176C47.2068 21.8336 47.25 22.0028 47.25 22.1357L48 22.1357L48.75 22.1357C48.75 21.5429 48.5012 21.0572 48.1582 20.6077C47.8285 20.1756 47.3472 19.6965 46.7782 19.1275L46.2479 19.6578ZM40.0531 18.4189L40.5835 18.9492C41.1825 18.3502 41.5796 17.9554 41.9129 17.701C42.2289 17.4599 42.3981 17.4167 42.531 17.4167V16.6667V15.9167C41.9382 15.9167 41.4525 16.1656 41.003 16.5085C40.5709 16.8382 40.0919 17.3195 39.5228 17.8886L40.0531 18.4189ZM45.0089 18.4189L45.5393 17.8886C44.9702 17.3195 44.4912 16.8382 44.059 16.5085C43.6096 16.1656 43.1238 15.9167 42.531 15.9167V16.6667V17.4167C42.664 17.4167 42.8331 17.4599 43.1492 17.701C43.4825 17.9554 43.8796 18.3502 44.4786 18.9492L45.0089 18.4189Z" fill="white"/>
</svg>
