<svg width="61" height="63" viewBox="0 0 61 63" fill="none" xmlns="http://www.w3.org/2000/svg">
<g clip-path="url(#clip0_199_1407)">
<path d="M59.5125 51.4748L1.58195 51.6568C1.01067 51.6586 0.545951 51.1891 0.544126 50.6083L0.425179 12.7465C0.423355 12.1657 0.885114 11.6932 1.4564 11.6915L59.3871 11.5095C59.9583 11.5077 60.4231 11.9772 60.4249 12.558L60.5438 50.4198C60.5455 51.0007 60.0838 51.473 59.5125 51.4748Z" fill="#FF4B55"/>
<path d="M10.4022 17.9132L11.3979 20.9165L14.5152 20.9313C14.9188 20.9331 15.0878 21.4563 14.7638 21.701L12.2622 23.5914L13.2118 26.6101C13.3347 27.0009 12.8977 27.3258 12.5686 27.0883L10.0269 25.2533L7.49674 27.1041C7.16913 27.3438 6.73007 27.0214 6.85048 26.6299L7.78118 23.6053L5.2677 21.7308C4.94221 21.4881 5.10791 20.9639 5.51149 20.9596L8.62858 20.9252L9.60538 17.9157C9.73189 17.526 10.2734 17.5243 10.4022 17.9132Z" fill="#FFE15A"/>
<path d="M21.7237 18.6184L22.434 19.5967L23.5741 19.2302C23.7218 19.1828 23.8438 19.3538 23.7538 19.4817L23.0582 20.4704L23.7534 21.4596C23.8435 21.5877 23.7213 21.7585 23.5737 21.711L22.4336 21.3439L21.7232 22.3218C21.6312 22.4484 21.4335 22.383 21.4325 22.2257L21.4234 21.0099L20.289 20.625C20.1422 20.575 20.1421 20.3639 20.289 20.3141L21.4234 19.9298L21.4329 18.7141C21.4341 18.5569 21.6318 18.4918 21.7237 18.6184Z" fill="#FFE15A"/>
<path d="M17.4089 15.7095L18.5982 15.837L19.1019 14.7345C19.1672 14.5918 19.3735 14.6155 19.4056 14.7695L19.6538 15.9587L20.8409 16.1051C20.9946 16.124 21.0362 16.331 20.902 16.4097L19.8662 17.017L20.0962 18.21C20.126 18.3646 19.9453 18.4686 19.8302 18.3632L18.9419 17.5493L17.897 18.1402C17.7618 18.2168 17.6084 18.074 17.6715 17.9303L18.1582 16.8198L17.2823 15.9919C17.169 15.8852 17.255 15.693 17.4089 15.7095Z" fill="#FFE15A"/>
<path d="M19.3257 27.4857L18.6216 28.4685L17.4791 28.1092C17.3312 28.0627 17.2102 28.2344 17.3011 28.3617L18.0029 29.3461L17.3139 30.3397C17.2246 30.4682 17.3479 30.6384 17.4951 30.5899L18.6329 30.2157L19.3495 31.189C19.4423 31.315 19.6395 31.2484 19.6396 31.0912L19.6411 29.8753L20.773 29.4832C20.9196 29.4324 20.9182 29.2213 20.771 29.1724L19.6343 28.7952L19.6171 27.5795C19.6147 27.4225 19.4168 27.3585 19.3257 27.4857Z" fill="#FFE15A"/>
<path d="M23.6224 24.7259L22.434 24.8609L21.9234 23.7616C21.8572 23.6193 21.651 23.6443 21.6198 23.7985L21.379 24.9892L20.1928 25.1431C20.0393 25.163 19.999 25.3702 20.1337 25.448L21.1733 26.0488L20.9507 27.2433C20.9219 27.398 21.1033 27.5009 21.2177 27.3948L22.1009 26.5754L23.1495 27.1597C23.2852 27.2354 23.4377 27.0917 23.3737 26.9483L22.88 25.8409L23.7507 25.0075C23.8637 24.9002 23.7765 24.7085 23.6224 24.7259Z" fill="#FFE15A"/>
</g>
<defs>
<clipPath id="clip0_199_1407">
<rect width="60" height="61" fill="white" transform="translate(0.388184 1.17737) rotate(-0.18)"/>
</clipPath>
</defs>
</svg>
