<svg width="61" height="61" viewBox="0 0 61 61" fill="none" xmlns="http://www.w3.org/2000/svg">
<g clip-path="url(#clip0_199_1355)">
<path d="M60.4665 23.5583L0.466947 23.7468L0.429031 11.6778C0.427237 11.1065 0.88902 10.6419 1.46031 10.6401L59.391 10.4581C59.9622 10.4563 60.4269 10.9181 60.4287 11.4893L60.4665 23.5583Z" fill="#FAB446"/>
<path d="M59.5145 49.7683L1.58399 49.9503C1.01271 49.9521 0.548011 49.4903 0.546216 48.919L0.508301 36.8502L60.5079 36.6617L60.5458 48.7305C60.5476 49.3019 60.0858 49.7665 59.5145 49.7683Z" fill="#73AF00"/>
<path d="M60.4664 23.5581L0.466797 23.7466L0.50796 36.8492L60.5075 36.6607L60.4664 23.5581Z" fill="#F5F5F5"/>
<path d="M30.5044 35.7645C27.4383 35.7741 24.9363 33.2877 24.9266 30.2217C24.917 27.1556 27.4034 24.6535 30.4695 24.6439C33.5355 24.6343 36.0376 27.1206 36.0472 30.1867C36.0568 33.2528 33.5705 35.7548 30.5044 35.7645ZM30.4727 25.6783C27.9769 25.6862 25.9532 27.7226 25.9611 30.2184C25.9689 32.7142 28.0053 34.7379 30.5011 34.73C32.997 34.7222 35.0206 32.6858 35.0128 30.19C35.0049 27.6941 32.9685 25.6705 30.4727 25.6783Z" fill="#41479B"/>
<path d="M30.4888 30.8346C30.8369 30.8335 31.1183 30.5504 31.1172 30.2023C31.1161 29.8542 30.833 29.5729 30.4848 29.5739C30.1367 29.575 29.8554 29.8581 29.8565 30.2063C29.8576 30.5544 30.1407 30.8357 30.4888 30.8346Z" fill="#41479B"/>
<path d="M30.488 30.2989L28.8865 30.4656L25.4449 30.3147L25.4444 30.1256L28.8849 29.9531L30.4874 30.1097L30.488 30.2989Z" fill="#41479B"/>
<path d="M30.4879 30.2989L32.0904 30.4555L35.5309 30.283L35.5303 30.0939L32.0888 29.943L30.4873 30.1097L30.4879 30.2989Z" fill="#41479B"/>
<path d="M30.3924 30.2046L30.2257 28.6032L30.3766 25.1616L30.5657 25.161L30.7382 28.6016L30.5815 30.204L30.3924 30.2046Z" fill="#41479B"/>
<path d="M30.3927 30.2046L30.236 31.807L30.4085 35.2476L30.5977 35.247L30.7486 31.8054L30.5818 30.204L30.3927 30.2046Z" fill="#41479B"/>
<path d="M30.4209 30.2713L29.1706 29.2569L26.8437 26.7166L26.977 26.5825L29.5319 28.8934L30.554 30.1373L30.4209 30.2713Z" fill="#41479B"/>
<path d="M30.4208 30.2713L31.443 31.5152L33.9979 33.8261L34.1312 33.6919L31.8043 31.1516L30.554 30.1373L30.4208 30.2713Z" fill="#41479B"/>
<path d="M30.4204 30.1378L31.4347 28.8875L33.9751 26.5606L34.1092 26.6939L31.7983 29.2488L30.5544 30.2709L30.4204 30.1378Z" fill="#41479B"/>
<path d="M30.4205 30.1377L29.1766 31.1599L26.8657 33.7148L26.9998 33.8481L29.5402 31.5212L30.5545 30.2709L30.4205 30.1377Z" fill="#41479B"/>
<path d="M30.5236 30.2916L29.1078 31.0584L25.8705 32.236L25.7976 32.0615L28.9102 30.5855L30.4506 30.117L30.5236 30.2916Z" fill="#41479B"/>
<path d="M30.5234 30.2916L32.0637 29.823L35.1764 28.347L35.1034 28.1725L31.8662 29.3501L30.4504 30.117L30.5234 30.2916Z" fill="#41479B"/>
<path d="M30.3998 30.2408L29.6329 28.825L28.4553 25.5878L28.6298 25.5148L30.1058 28.6275L30.5744 30.1679L30.3998 30.2408Z" fill="#41479B"/>
<path d="M30.3996 30.2408L30.8682 31.7811L32.3442 34.8938L32.5187 34.8208L31.3411 31.5836L30.5743 30.1678L30.3996 30.2408Z" fill="#41479B"/>
<path d="M30.4509 30.2918L28.9076 29.833L25.7857 28.3765L25.8576 28.2016L29.1022 29.3588L30.5227 30.1167L30.4509 30.2918Z" fill="#41479B"/>
<path d="M30.4507 30.2919L31.8713 31.0499L35.1159 32.2071L35.1878 32.0322L32.0659 30.5757L30.5226 30.1168L30.4507 30.2919Z" fill="#41479B"/>
<path d="M30.3994 30.1684L30.8583 28.6251L32.3147 25.5032L32.4897 25.5751L31.3324 28.8197L30.5745 30.2403L30.3994 30.1684Z" fill="#41479B"/>
<path d="M30.3996 30.1684L29.6416 31.589L28.4844 34.8335L28.6593 34.9054L30.1158 31.7835L30.5746 30.2402L30.3996 30.1684Z" fill="#41479B"/>
<path d="M30.4899 31.0545C30.9595 31.053 31.339 30.6711 31.3376 30.2015C31.3361 29.7319 30.9542 29.3524 30.4846 29.3539C30.015 29.3554 29.6355 29.7373 29.6369 30.2069C29.6384 30.6765 30.0203 31.056 30.4899 31.0545Z" fill="#F5F5F5"/>
<path d="M30.4892 30.7141C30.7708 30.7132 30.9983 30.4842 30.9974 30.2026C30.9966 29.921 30.7676 29.6934 30.486 29.6943C30.2044 29.6952 29.9768 29.9242 29.9777 30.2058C29.9786 30.4874 30.2076 30.715 30.4892 30.7141Z" fill="#41479B"/>
</g>
<defs>
<clipPath id="clip0_199_1355">
<rect width="60" height="60" fill="white" transform="translate(0.392578 0.298462) rotate(-0.18)"/>
</clipPath>
</defs>
</svg>
