<svg width="61" height="62" viewBox="0 0 61 62" fill="none" xmlns="http://www.w3.org/2000/svg">
<g clip-path="url(#clip0_199_1348)">
<path d="M59.5164 50.8339L1.58586 51.0159C1.01458 51.0177 0.549857 50.5482 0.548032 49.9674L0.429085 12.1056C0.427261 11.5248 0.88902 11.0524 1.46031 11.0506L59.391 10.8686C59.9622 10.8668 60.427 11.3363 60.4288 11.9171L60.5477 49.7789C60.5494 50.3598 60.0877 50.8321 59.5164 50.8339Z" fill="#F5F5F5"/>
<path d="M30.5248 42.5109C36.8091 42.4911 41.8873 37.2957 41.8672 30.9066C41.8472 24.5176 36.7364 19.3542 30.4521 19.3739C24.1677 19.3937 19.0895 24.5891 19.1096 30.9781C19.1297 37.3672 24.2404 42.5306 30.5248 42.5109Z" fill="#FF4B55"/>
</g>
<defs>
<clipPath id="clip0_199_1348">
<rect width="60" height="61" fill="white" transform="translate(0.39209 0.536743) rotate(-0.18)"/>
</clipPath>
</defs>
</svg>
