<svg width="61" height="61" viewBox="0 0 61 61" fill="none" xmlns="http://www.w3.org/2000/svg">
<g clip-path="url(#clip0_199_1384)">
<path d="M60.4322 13.5308L0.432649 13.7193L0.427078 11.9459C0.425283 11.3746 0.887067 10.9099 1.45835 10.9081L59.389 10.7261C59.9603 10.7243 60.425 11.1861 60.4268 11.7574L60.4322 13.5308Z" fill="#FF4B55"/>
<path d="M60.4322 13.5301L0.432617 13.7186L0.441438 16.5264L60.441 16.3379L60.4322 13.5301Z" fill="#F5F5F5"/>
<path d="M60.441 16.3391L0.441406 16.5276L0.450227 19.3354L60.4498 19.1469L60.441 16.3391Z" fill="#FF4B55"/>
<path d="M60.4498 19.1457L0.450195 19.3342L0.459016 22.142L60.4586 21.9535L60.4498 19.1457Z" fill="#F5F5F5"/>
<path d="M60.4586 21.9547L0.458984 22.1432L0.467805 24.951L60.4674 24.7625L60.4586 21.9547Z" fill="#FF4B55"/>
<path d="M60.4674 24.7624L0.467773 24.9509L0.476594 27.7587L60.4762 27.5702L60.4674 24.7624Z" fill="#F5F5F5"/>
<path d="M60.4762 27.5703L0.476562 27.7588L0.485383 30.5666L60.485 30.3781L60.4762 27.5703Z" fill="#FF4B55"/>
<path d="M60.4849 30.3782L0.485352 30.5667L0.494173 33.3744L60.4938 33.186L60.4849 30.3782Z" fill="#F5F5F5"/>
<path d="M60.5028 35.9939L0.503162 36.1824L0.48877 31.6011L1.52329 31.5978L1.5291 33.3711L60.4939 33.1858L60.5028 35.9939Z" fill="#FF4B55"/>
<path d="M60.5025 35.9936L0.50293 36.1821L0.511751 38.9899L60.5113 38.8014L60.5025 35.9936Z" fill="#F5F5F5"/>
<path d="M60.5118 38.8015L0.512207 38.99L0.521028 41.7978L60.5206 41.6093L60.5118 38.8015Z" fill="#FF4B55"/>
<path d="M60.5206 41.6105L0.520996 41.799L0.529817 44.6067L60.5294 44.4182L60.5206 41.6105Z" fill="#F5F5F5"/>
<path d="M60.5294 44.4171L0.529785 44.6056L0.538606 47.4134L60.5382 47.2249L60.5294 44.4171Z" fill="#FF4B55"/>
<path d="M59.5125 50.0364L1.58192 50.2184C1.01063 50.2201 0.54594 49.7584 0.544145 49.1871L0.538574 47.4137L60.5382 47.2252L60.5437 48.9986C60.5455 49.57 60.0837 50.0346 59.5125 50.0364Z" fill="#F5F5F5"/>
<path d="M36.7011 33.2606L1.52892 33.3711C0.957637 33.3728 0.492942 32.9111 0.491148 32.3398L0.427078 11.9459C0.425283 11.3746 0.887067 10.9099 1.45835 10.9081L36.6305 10.7976C37.2018 10.7958 37.6665 11.2576 37.6683 11.8289L37.7324 32.2228C37.7341 32.7943 37.2724 33.2588 36.7011 33.2606Z" fill="#41479B"/>
<path d="M10.2846 22.101C10.2723 18.1885 13.4381 15.0047 17.347 14.9924C18.3305 14.9894 19.2663 15.1877 20.1191 15.5479C20.2298 15.5946 20.3126 15.4405 20.2132 15.3731C18.801 14.4182 17.076 13.8981 15.2278 14C11.1645 14.224 7.85175 17.5078 7.60177 21.5696C7.31111 26.2942 11.0612 30.1954 15.71 30.1808C17.39 30.1755 18.95 29.653 20.2441 28.7713C20.3438 28.7034 20.2605 28.5495 20.1497 28.5969C19.3019 28.9595 18.3712 29.1622 17.3917 29.1652C13.4826 29.1774 10.2969 26.0136 10.2846 22.101Z" fill="#FFE15A"/>
<path d="M26.4798 22.0501L29.4712 20.8818C29.6191 20.8241 29.568 20.6031 29.4097 20.6162L26.2104 20.8826L28.4021 18.5249C28.5103 18.4087 28.3684 18.232 28.2315 18.3124L25.4572 19.9425L26.4068 16.872C26.4537 16.7205 26.2493 16.6228 26.161 16.7546L24.37 19.4256L23.8984 16.2457C23.8752 16.0886 23.6483 16.0892 23.6259 16.2464L23.3374 18.2604L23.2177 19.1127L23.1716 19.4295L21.3639 16.772C21.2747 16.6408 21.0706 16.7398 21.1188 16.8911L22.0912 19.953L19.3069 18.3403C19.1696 18.2607 19.0288 18.4383 19.1377 18.5539L21.3441 20.8977L18.1423 20.6515C17.984 20.6394 17.9341 20.8606 18.0824 20.9175L21.0838 22.0669L18.0896 23.2354C17.9415 23.2932 17.9929 23.5142 18.1511 23.501L21.3514 23.2347L19.1597 25.5982C19.0517 25.7147 19.1939 25.8911 19.3306 25.8105L22.1046 24.1746L21.1514 27.2425C21.1043 27.3941 21.3088 27.492 21.3973 27.3601L23.1882 24.6913L23.2363 25.0153L23.3613 25.8594L23.6626 27.8769C23.6861 28.034 23.913 28.0331 23.9352 27.8759L24.3868 24.6878L26.1945 27.3475C26.2837 27.4787 26.4875 27.38 26.4396 27.2285L25.4707 24.1641L28.2549 25.7825C28.3921 25.8622 28.5331 25.6849 28.4245 25.5691L26.2178 23.2194L29.4189 23.4656C29.5772 23.4778 29.6271 23.2565 29.4788 23.1997L26.4798 22.0501Z" fill="#FFE15A"/>
</g>
<defs>
<clipPath id="clip0_199_1384">
<rect width="60" height="60" fill="white" transform="translate(0.391602 0.566528) rotate(-0.18)"/>
</clipPath>
</defs>
</svg>
