<svg width="60" height="60" viewBox="0 0 60 60" fill="none" xmlns="http://www.w3.org/2000/svg">
<g clip-path="url(#clip0_167_6684)">
<path d="M39.999 10.3445H58.9645C59.5358 10.3445 59.9991 10.8077 59.9991 11.379V48.6204C59.9991 49.1917 59.5358 49.6549 58.9645 49.6549H39.999V10.3445Z" fill="#FF4B55"/>
<path d="M39.9999 10.345H19.9995V49.6555H39.9999V10.345Z" fill="#41479B"/>
<path d="M1.03355 10.3445H19.9991V49.6548H1.03355C0.462266 49.6548 -0.000976562 49.1916 -0.000976562 48.6203V11.3789C-0.000976562 10.8076 0.462266 10.3445 1.03355 10.3445Z" fill="#FF4B55"/>
<path d="M10.0395 26.6045C8.47607 26.6045 7.13604 25.6626 6.54564 24.3171C6.54529 24.3376 6.53955 24.3567 6.53955 24.3773C6.53955 26.3101 8.10658 27.8772 10.0395 27.8772C11.9724 27.8772 13.5393 26.3101 13.5393 24.3773C13.5393 24.3567 13.5335 24.3376 13.5332 24.3173C12.9428 25.6626 11.6028 26.6045 10.0395 26.6045Z" fill="#F9CF02"/>
<path d="M10.0395 25.9683C11.4452 25.9683 12.5848 24.8287 12.5848 23.423C12.5848 22.0173 11.4452 20.8777 10.0395 20.8777C8.63372 20.8777 7.49414 22.0173 7.49414 23.423C7.49414 24.8287 8.63372 25.9683 10.0395 25.9683Z" fill="#F9CF02"/>
<path d="M8.44873 18.6503C8.44873 19.5289 9.161 20.2411 10.0396 20.2411C10.9181 20.2411 11.6304 19.5289 11.6304 18.6503C11.6304 18.014 11.2326 17.9344 11.2326 17.6958C11.2326 17.4572 11.4712 17.1391 10.994 16.7413C11.2326 17.1391 10.835 17.2186 10.835 17.6163C10.835 18.0139 10.994 18.014 10.994 18.3321C10.994 18.5079 10.8515 18.6502 10.676 18.6502C10.5002 18.6502 10.3579 18.5077 10.3579 18.3321C10.3579 18.0141 10.676 17.6958 10.676 17.2185C10.676 16.7412 10.5964 16.5822 10.3579 16.1845C10.1194 15.7867 9.72162 15.4686 10.0399 15.1504C9.5626 15.3094 9.80131 15.9457 9.80131 16.3436C9.80131 16.7413 9.48326 16.9799 9.48326 17.4572C9.48326 17.9345 9.72186 18.014 9.72186 18.3321C9.72186 18.5079 9.57936 18.6502 9.40381 18.6502C9.22826 18.6502 9.08576 18.5077 9.08576 18.3321C9.08576 18.0141 9.24479 18.0141 9.24479 17.6163C9.24479 17.2184 8.84705 17.1389 9.08576 16.7413C8.60846 17.1391 8.84717 17.4572 8.84717 17.6958C8.84647 17.9344 8.44873 18.0139 8.44873 18.6503Z" fill="#F9CF02"/>
<path d="M3.04004 28.776V43.5227C3.04004 43.6678 3.1577 43.7853 3.30266 43.7853H5.95895C6.10402 43.7853 6.22156 43.6676 6.22156 43.5227V28.776C6.22156 28.631 6.10391 28.5134 5.95895 28.5134H3.30266C3.1577 28.5133 3.04004 28.631 3.04004 28.776Z" fill="#F9CF02"/>
<path d="M13.8579 28.776V43.5227C13.8579 43.6678 13.9756 43.7853 14.1205 43.7853H16.7768C16.9219 43.7853 17.0394 43.6676 17.0394 43.5227V28.776C17.0394 28.631 16.9218 28.5134 16.7768 28.5134H14.1205C13.9754 28.5133 13.8579 28.631 13.8579 28.776Z" fill="#F9CF02"/>
<path d="M6.85791 31.3212V32.0685C6.85791 32.2136 6.97557 32.3311 7.12053 32.3311H12.9585C13.1035 32.3311 13.2211 32.2135 13.2211 32.0685V31.3212C13.2211 31.1761 13.1034 31.0586 12.9585 31.0586H7.12053C6.97545 31.0586 6.85791 31.1762 6.85791 31.3212Z" fill="#F9CF02"/>
<path d="M6.85791 40.2301V40.9775C6.85791 41.1225 6.97557 41.2401 7.12053 41.2401H12.9585C13.1035 41.2401 13.2211 41.1224 13.2211 40.9775V40.2301C13.2211 40.0851 13.1034 39.9675 12.9585 39.9675H7.12053C6.97545 39.9675 6.85791 40.0851 6.85791 40.2301Z" fill="#F9CF02"/>
<path d="M7.33219 28.5134H12.7472C12.8804 28.5134 12.929 28.6889 12.8148 28.7574L10.2425 30.3009C10.1177 30.3758 9.96176 30.3758 9.83719 30.3009L7.26469 28.7574C7.15044 28.6889 7.19907 28.5134 7.33219 28.5134Z" fill="#F9CF02"/>
<path d="M7.33222 41.8765H12.7472C12.8805 41.8765 12.929 42.0519 12.8148 42.1204L10.2423 43.6638C10.1175 43.7387 9.96155 43.7387 9.83698 43.6638L7.2646 42.1203C7.15046 42.0518 7.1991 41.8765 7.33222 41.8765Z" fill="#F9CF02"/>
<path d="M10.3504 32.9925C10.2501 32.9829 10.1529 32.9622 10.0502 32.9622C8.30043 32.9622 6.87695 34.3856 6.87695 36.1354C6.87695 37.1739 7.38426 38.0879 8.15934 38.6646C8.24852 38.7309 8.36641 38.6351 8.32305 38.5326C8.23012 38.3124 8.17785 38.0711 8.17785 37.817C8.17785 36.7828 9.02078 35.9418 10.0559 35.9449C10.6 35.9466 11.1216 35.6779 11.3624 35.1899C11.8606 34.1808 11.2527 33.1778 10.3504 32.9925ZM10.0502 35.0882C9.69977 35.0882 9.41547 34.8041 9.41547 34.4535C9.41547 34.1031 9.69965 33.8189 10.0502 33.8189C10.4005 33.8189 10.6847 34.103 10.6847 34.4535C10.6846 34.8041 10.4005 35.0882 10.0502 35.0882Z" fill="#F9CF02"/>
<path d="M11.941 33.6061C11.8518 33.5398 11.7339 33.6358 11.7773 33.7382C11.8703 33.9584 11.9225 34.1997 11.9225 34.4536C11.9225 35.4879 11.0794 36.329 10.0444 36.3258C9.50031 36.3242 8.97859 36.5929 8.73789 37.0809C8.23996 38.0901 8.84781 39.0932 9.75015 39.2782C9.85046 39.2879 9.94761 39.3086 10.0504 39.3086C11.8 39.3086 13.2236 37.8851 13.2236 36.1354C13.2234 35.097 12.7161 34.1829 11.941 33.6061ZM10.0504 38.4518C9.7 38.4518 9.4157 38.1678 9.4157 37.8171C9.4157 37.4668 9.69988 37.1826 10.0504 37.1826C10.4008 37.1826 10.685 37.4666 10.685 37.8171C10.6848 38.1677 10.4008 38.4518 10.0504 38.4518Z" fill="#F9CF02"/>
</g>
<defs>
<clipPath id="clip0_167_6684">
<rect width="60" height="60" fill="white"/>
</clipPath>
</defs>
</svg>
