<svg width="61" height="62" viewBox="0 0 61 62" fill="none" xmlns="http://www.w3.org/2000/svg">
<g clip-path="url(#clip0_199_1419)">
<path d="M60.4619 24.0801L0.462262 24.2686L0.423714 11.9985C0.42189 11.4177 0.883649 10.9453 1.45493 10.9435L59.3856 10.7615C59.9569 10.7597 60.4216 11.2292 60.4234 11.81L60.4619 24.0801Z" fill="#F5F5F5"/>
<path d="M59.5108 50.7269L1.58028 50.9089C1.009 50.9107 0.544278 50.4412 0.542454 49.8604L0.503906 37.5905L60.5035 37.402L60.542 49.6719C60.5439 50.2529 60.0821 50.7251 59.5108 50.7269Z" fill="#FF4B55"/>
<path d="M60.462 24.0799L0.462402 24.2684L0.504252 37.5895L60.5038 37.401L60.462 24.0799Z" fill="#41479B"/>
</g>
<defs>
<clipPath id="clip0_199_1419">
<rect width="60" height="61" fill="white" transform="translate(0.387207 0.429688) rotate(-0.18)"/>
</clipPath>
</defs>
</svg>
